<?xml version="1.0" encoding="utf-8"?>
<!-- Generator: Adobe Illustrator 16.0.0, SVG Export Plug-In . SVG Version: 6.00 Build 0)  -->
<!DOCTYPE svg PUBLIC "-//W3C//DTD SVG 1.1//EN" "http://www.w3.org/Graphics/SVG/1.1/DTD/svg11.dtd">
<svg version="1.1" xmlns="http://www.w3.org/2000/svg" xmlns:xlink="http://www.w3.org/1999/xlink" x="0px" y="0px" width="160px"
	 height="43px" viewBox="0 0 160 43" enable-background="new 0 0 160 43" xml:space="preserve">
<g id="Capa_3">
</g>
<g id="Capa_1">
</g>
<g id="Capa_2">
	<g>
		<path fill="#002E67" d="M67.703,20.736h-6.949v7.402c0,0.25-0.204,0.454-0.452,0.454h-1.155c-0.249,0-0.451-0.203-0.451-0.454
			V15.822c0-3.011,1.651-4.21,4.819-4.21c1.338,0,3.462,0.045,4.417,0.134c0.135,0.026,0.224,0.184,0.224,0.319v1.133
			c0,0.159-0.089,0.272-0.248,0.272h-4.369c-2.399,0-2.785,0.633-2.785,2.353v3.147h6.949c0.25,0,0.453,0.203,0.453,0.454v0.859
			C68.155,20.531,67.953,20.736,67.703,20.736"/>
		<path fill="#002E67" d="M73.295,28.592h-1.245c-0.228,0-0.408-0.203-0.408-0.454V12.201c0-0.227,0.159-0.43,0.408-0.43h1.245
			c0.227,0,0.408,0.181,0.408,0.43v15.938C73.704,28.367,73.545,28.592,73.295,28.592"/>
		<path fill="#002E67" d="M81.717,22.967h-4.505c-0.25,0-0.43-0.136-0.43-0.385v-0.884c0-0.226,0.18-0.407,0.43-0.407h4.505
			c0.248,0,0.431,0.157,0.431,0.407v0.884C82.147,22.809,81.965,22.967,81.717,22.967"/>
		<path fill="#FFFFFF" d="M38.823,15.593c0.925-0.792,1.684-1.708,2.201-2.713c0.515-0.994,0.744-1.983,0.723-2.918
			c-0.024-0.921-0.297-1.79-0.783-2.556c-0.485-0.763-1.181-1.423-2.058-1.943c-0.871-0.518-1.924-0.894-3.128-1.091
			c-1.198-0.2-2.438-0.2-3.66-0.034c-1.216,0.166-2.413,0.499-3.529,0.971c-1.122,0.471-2.162,1.087-3.063,1.818
			c-0.904,0.728-1.67,1.581-2.23,2.523c-0.379,0.642-0.629,1.282-0.776,1.914c5.661,0.313,10.971,1.928,15.646,4.543
			C38.392,15.941,38.613,15.773,38.823,15.593"/>
		<path fill="#002E67" d="M22.905,15.09c0.412,0.808,1.05,1.525,1.894,2.105c0.854,0.586,1.91,1.029,3.154,1.278
			c1.248,0.254,2.56,0.285,3.86,0.126c1.302-0.162,2.587-0.515,3.78-1.026c0.93-0.397,1.794-0.894,2.57-1.466
			c-4.676-2.616-9.982-4.23-15.647-4.543c-0.067,0.306-0.123,0.61-0.144,0.908C22.312,13.4,22.499,14.286,22.905,15.09"/>
		<path fill="#FFFFFF" d="M19.395,10.905c0.766-1.263,1.798-2.403,3.015-3.381c1.205-0.968,2.598-1.789,4.087-2.415
			c1.49-0.626,3.083-1.068,4.699-1.291c1.621-0.221,3.271-0.221,4.865,0.039c1.61,0.26,3.017,0.764,4.187,1.452
			c1.185,0.698,2.128,1.585,2.789,2.608c0.668,1.037,1.047,2.209,1.09,3.46c0.046,1.27-0.25,2.617-0.936,3.979
			c-0.487,0.967-1.139,1.874-1.918,2.707c0.95,0.665,1.862,1.372,2.739,2.123c0.549-0.726,1.027-1.485,1.415-2.279
			c0.854-1.746,1.211-3.467,1.134-5.083c-0.072-1.592-0.569-3.081-1.431-4.387c-0.847-1.289-2.038-2.409-3.534-3.279
			c-1.473-0.864-3.242-1.485-5.25-1.812c-1.996-0.321-4.053-0.318-6.069-0.042c-2.013,0.276-3.997,0.829-5.852,1.61
			c-1.857,0.782-3.599,1.801-5.115,3.014c-1.42,1.133-2.646,2.444-3.596,3.898c1.096-0.143,2.204-0.241,3.331-0.288
			C19.154,11.329,19.27,11.114,19.395,10.905"/>
		<path fill="#002E67" d="M13.778,16.973c-0.167,1.598,0.08,3.143,0.708,4.546c0.64,1.429,1.672,2.712,3.066,3.76
			c1.415,1.063,3.201,1.883,5.318,2.363c2.135,0.485,4.398,0.574,6.647,0.315c2.263-0.259,4.496-0.868,6.574-1.768
			c2.076-0.899,3.98-2.086,5.586-3.497c0.88-0.773,1.662-1.614,2.335-2.505c-0.879-0.75-1.788-1.458-2.739-2.123
			c-0.327,0.349-0.677,0.693-1.049,1.018c-1.266,1.091-2.758,2.014-4.385,2.715c-1.627,0.703-3.378,1.18-5.152,1.39
			c-1.766,0.213-3.542,0.157-5.232-0.208c-1.675-0.356-3.096-0.978-4.229-1.795c-1.124-0.806-1.963-1.799-2.495-2.909
			c-0.524-1.095-0.744-2.303-0.636-3.559c0.085-1.037,0.399-2.108,0.951-3.176c-1.127,0.045-2.239,0.142-3.331,0.286
			c-0.074,0.112-0.147,0.22-0.219,0.334C14.504,13.768,13.94,15.398,13.778,16.973"/>
		<path fill="#FFFFFF" d="M16.231,8.327c1.826-1.453,3.916-2.672,6.139-3.607c2.219-0.935,4.596-1.593,6.997-1.929
			c2.413-0.33,4.873-0.335,7.26,0.048c2.415,0.387,4.542,1.135,6.324,2.165c1.808,1.053,3.265,2.395,4.303,3.957
			c1.058,1.588,1.679,3.4,1.793,5.34c0.117,1.98-0.295,4.092-1.315,6.237c-0.335,0.702-0.729,1.383-1.169,2.042
			c0.845,0.881,1.648,1.801,2.406,2.757c0.42-0.677,0.799-1.374,1.133-2.089c1.188-2.566,1.648-5.085,1.485-7.439
			c-0.162-2.302-0.921-4.443-2.188-6.316c-1.24-1.834-2.962-3.411-5.096-4.635c-2.087-1.204-4.576-2.077-7.396-2.523
			c-2.78-0.442-5.638-0.434-8.441-0.044c-2.79,0.385-5.545,1.151-8.13,2.235c-2.589,1.091-5.026,2.508-7.163,4.196
			c-1.794,1.417-3.389,3.039-4.7,4.83c1.231-0.432,2.49-0.798,3.777-1.095C13.35,10.928,14.701,9.542,16.231,8.327"/>
		<path fill="#002E67" d="M5.041,21.548c-0.327,2.309-0.075,4.564,0.727,6.634c0.82,2.111,2.21,4.033,4.141,5.624
			c1.967,1.62,3.493,2.89,6.516,3.656c3.067,0.78,6.341,0.966,9.613,0.619c3.294-0.349,6.56-1.227,9.595-2.561
			c3.026-1.32,6.798-3.083,9.12-5.183c1.668-1.51,3.095-3.193,4.214-5c-0.756-0.957-1.561-1.876-2.404-2.757
			c-0.922,1.393-2.061,2.69-3.377,3.862c-1.96,1.747-4.285,3.213-6.829,4.318c-2.547,1.11-5.287,1.852-8.053,2.155
			c-2.755,0.307-5.512,0.176-8.109-0.448c-2.564-0.617-4.716-1.651-6.412-2.986c-1.666-1.308-2.883-2.896-3.617-4.661
			c-0.722-1.73-0.973-3.622-0.737-5.571c0.232-1.917,0.947-3.893,2.167-5.834c0.204-0.328,0.425-0.646,0.654-0.958
			c-1.288,0.297-2.546,0.663-3.777,1.095c-0.271,0.367-0.53,0.74-0.772,1.12C6.238,16.952,5.361,19.279,5.041,21.548"/>
		<path fill="#FFFFFF" d="M94.883,28.391c-0.592,0.09-2.294,0.202-4.43,0.202c-2.432,0-4.84-0.475-4.84-4.222V12.015
			c0-0.25,0.206-0.456,0.457-0.456h1.158c0.25,0,0.455,0.205,0.455,0.456v12.356c0,1.724,0.386,2.36,2.792,2.36h4.385
			c0.157,0,0.248,0.115,0.248,0.274v1.067C95.108,28.209,95.017,28.366,94.883,28.391"/>
		<path fill="#FFFFFF" d="M113.786,16.127L113.786,16.127h-0.009c-0.093-0.003-0.182-0.011-0.279-0.011
			c-0.161,0-0.339,0.004-0.528,0.011h-2.127v-4.009c0-0.25-0.204-0.431-0.433-0.431h-1.157c-0.252,0-0.409,0.204-0.409,0.431v4.009
			h-7.298c-0.179-0.007-0.356-0.011-0.532-0.011c-3.408,0-4.951,2.203-4.951,5.61v1.59c0,3.408,1.567,5.611,4.951,5.611
			c1.386,0,2.976-0.227,4.18-0.522c0.408-0.091,0.479-0.228,0.479-0.523v-9.848h3.171v9.985c0,0.317,0.068,0.457,0.476,0.522
			c1.41,0.275,2.816,0.386,4.179,0.386c3.407,0,4.953-2.203,4.953-5.611V21.68C118.451,18.224,116.884,16.243,113.786,16.127
			 M103.672,27.02c-0.637,0.112-1.705,0.225-2.66,0.225c-2.248,0-2.95-1.543-2.95-3.929v-1.59c0-0.882,0.092-1.644,0.326-2.257
			c0.372-0.763,0.962-1.436,2.333-1.436h2.951V27.02z M116.452,23.316c0,2.478-0.703,3.862-2.954,3.862
			c-0.771,0-1.882-0.068-2.656-0.136v-9.009h2.944c0.698,0,1.813,0.046,2.465,1.953c0.024,0.073,0.049,0.139,0.076,0.202
			c0.085,0.442,0.125,0.938,0.125,1.493V23.316z"/>
	</g>
</g>
</svg>
