<?xml version="1.0" encoding="utf-8"?>
<!-- Generator: Adobe Illustrator 16.0.0, SVG Export Plug-In . SVG Version: 6.00 Build 0)  -->
<!DOCTYPE svg PUBLIC "-//W3C//DTD SVG 1.1//EN" "http://www.w3.org/Graphics/SVG/1.1/DTD/svg11.dtd">
<svg version="1.1" xmlns="http://www.w3.org/2000/svg" xmlns:xlink="http://www.w3.org/1999/xlink" x="0px" y="0px" width="160px"
	 height="43px" viewBox="0 0 160 43" enable-background="new 0 0 160 43" xml:space="preserve">
<g id="Capa_3">
</g>
<g id="Capa_1">
</g>
<g id="Capa_2">
	<g>
		<g>
			<path fill="#00D3DE" d="M97.867,28.785c-1.204,0-2.315-0.115-3.634-0.578c-1.319,0.463-2.407,0.578-3.611,0.578
				c-3.519,0-4.907-2.291-4.907-6.319V11.864c0-0.231,0.185-0.439,0.439-0.439h1.227c0.231,0,0.44,0.208,0.44,0.439v10.602
				c0,3.125,0.625,4.537,3.241,4.537c0.393,0,1.62-0.069,2.129-0.208V11.864c0-0.231,0.185-0.439,0.44-0.439h1.25
				c0.254,0,0.417,0.162,0.417,0.416v14.954c0.509,0.139,1.736,0.208,2.129,0.208c2.616,0,3.241-1.412,3.241-4.537V11.864
				c0-0.231,0.185-0.439,0.44-0.439h1.227c0.231,0,0.44,0.208,0.44,0.439v10.602C102.774,26.494,101.386,28.785,97.867,28.785z"/>
			<path fill="#00D3DE" d="M117.264,28.623h-1.273c-0.231,0-0.417-0.208-0.417-0.463v-6.852h-7.083v6.852
				c0,0.231-0.162,0.463-0.417,0.463h-1.273c-0.231,0-0.417-0.231-0.417-0.463V16.054c0-3.541,1.644-4.791,4.977-4.791h1.343
				c3.31,0,4.977,1.25,4.977,4.791V28.16C117.681,28.392,117.496,28.623,117.264,28.623z M115.574,16.054
				c0-2.407-0.764-2.939-2.87-2.939h-1.343c-2.106,0-2.87,0.532-2.87,2.939v3.403h7.083V16.054z"/>
			<path fill="#00D3DE" d="M132.749,28.623h-1.481c-0.278,0-0.417,0-0.602-0.301l-4.143-6.897c-0.07,0-0.139,0-0.208,0
				c-0.139,0-0.255,0-0.394,0c-0.764,0-1.319-0.023-2.546-0.07v6.806c0,0.231-0.162,0.463-0.417,0.463h-1.25
				c-0.231,0-0.417-0.208-0.417-0.463V11.957c0-0.324,0.139-0.463,0.555-0.509c0.996-0.116,2.731-0.186,4.074-0.186
				c3.657,0,6.481,1.227,6.481,4.977v0.162c0,2.593-1.528,4.12-3.634,4.676l4.213,7.037c0.046,0.069,0.069,0.139,0.069,0.208
				C133.05,28.484,132.934,28.623,132.749,28.623z M130.318,16.239c0-2.314-1.504-3.078-4.398-3.078c-0.718,0-1.991,0-2.546,0.069
				v6.342c1.019,0.023,2.014,0.047,2.546,0.047c2.847,0,4.398-0.718,4.398-3.218V16.239z"/>
			<path fill="#00D3DE" d="M145.202,28.67c-0.879,0.092-3.148,0.115-4.514,0.115c-3.241,0-4.93-1.227-4.93-4.306v-8.911
				c0-3.079,1.689-4.306,4.93-4.306c1.366,0,3.542,0.046,4.514,0.139c0.139,0.023,0.232,0.186,0.232,0.324v1.157
				c0,0.162-0.093,0.278-0.255,0.278h-4.467c-2.454,0-2.847,0.647-2.847,2.407v3.217h7.106c0.255,0,0.463,0.209,0.463,0.463v0.88
				c0,0.255-0.208,0.463-0.463,0.463h-7.106v3.889c0,1.76,0.394,2.408,2.847,2.408h4.467c0.162,0,0.255,0.115,0.255,0.277v1.181
				C145.434,28.484,145.341,28.646,145.202,28.67z"/>
		</g>
		<g>
			<path fill="#002E67" d="M67.703,20.736h-6.949v7.402c0,0.25-0.204,0.453-0.452,0.453h-1.155c-0.249,0-0.451-0.203-0.451-0.453
				V15.822c0-3.011,1.651-4.211,4.819-4.211c1.338,0,3.462,0.045,4.417,0.134c0.135,0.026,0.224,0.184,0.224,0.319v1.133
				c0,0.158-0.089,0.271-0.248,0.271h-4.369c-2.399,0-2.785,0.634-2.785,2.354v3.147h6.949c0.25,0,0.453,0.202,0.453,0.454v0.859
				C68.155,20.531,67.953,20.736,67.703,20.736"/>
			<path fill="#002E67" d="M73.295,28.592h-1.245c-0.228,0-0.408-0.203-0.408-0.453V12.201c0-0.227,0.159-0.43,0.408-0.43h1.245
				c0.227,0,0.408,0.181,0.408,0.43v15.938C73.704,28.366,73.545,28.592,73.295,28.592"/>
			<path fill="#002E67" d="M81.717,22.967h-4.505c-0.25,0-0.43-0.136-0.43-0.385v-0.884c0-0.226,0.18-0.407,0.43-0.407h4.505
				c0.248,0,0.431,0.157,0.431,0.407v0.884C82.147,22.809,81.965,22.967,81.717,22.967"/>
			<path fill="#00D3DE" d="M38.823,15.593c0.925-0.792,1.684-1.708,2.201-2.714c0.515-0.994,0.744-1.982,0.723-2.918
				c-0.024-0.922-0.297-1.79-0.783-2.556c-0.485-0.763-1.181-1.424-2.058-1.943c-0.871-0.519-1.924-0.894-3.128-1.092
				c-1.198-0.199-2.438-0.199-3.66-0.033c-1.216,0.166-2.413,0.499-3.529,0.971c-1.122,0.472-2.162,1.088-3.063,1.818
				c-0.904,0.729-1.67,1.581-2.23,2.523c-0.379,0.643-0.629,1.282-0.776,1.914c5.661,0.313,10.971,1.928,15.646,4.544
				C38.392,15.941,38.613,15.772,38.823,15.593"/>
			<path fill="#002E67" d="M22.905,15.09c0.412,0.808,1.05,1.524,1.894,2.105c0.854,0.586,1.91,1.029,3.154,1.278
				c1.248,0.254,2.56,0.284,3.86,0.126c1.302-0.162,2.587-0.516,3.78-1.026c0.93-0.397,1.794-0.894,2.57-1.466
				c-4.676-2.616-9.982-4.23-15.647-4.544c-0.067,0.306-0.123,0.61-0.144,0.908C22.312,13.4,22.499,14.286,22.905,15.09"/>
			<path fill="#00D3DE" d="M19.395,10.905c0.766-1.264,1.798-2.403,3.015-3.381c1.205-0.968,2.598-1.789,4.087-2.415
				s3.083-1.068,4.699-1.291c1.621-0.221,3.271-0.221,4.865,0.039c1.61,0.26,3.017,0.764,4.187,1.452
				c1.185,0.698,2.128,1.585,2.789,2.608c0.668,1.036,1.047,2.209,1.09,3.46c0.046,1.27-0.25,2.617-0.936,3.979
				c-0.487,0.967-1.139,1.874-1.918,2.707c0.95,0.665,1.862,1.372,2.739,2.123c0.549-0.726,1.027-1.485,1.415-2.279
				c0.854-1.745,1.211-3.467,1.134-5.083c-0.072-1.592-0.569-3.081-1.431-4.387c-0.847-1.289-2.038-2.409-3.534-3.279
				c-1.473-0.864-3.242-1.485-5.25-1.812c-1.996-0.32-4.053-0.317-6.069-0.042c-2.013,0.276-3.997,0.829-5.852,1.61
				c-1.857,0.782-3.599,1.801-5.115,3.014c-1.42,1.133-2.646,2.444-3.596,3.898c1.096-0.143,2.204-0.241,3.331-0.288
				C19.154,11.328,19.27,11.113,19.395,10.905"/>
			<path fill="#002E67" d="M13.778,16.973c-0.167,1.598,0.08,3.143,0.708,4.546c0.64,1.429,1.672,2.712,3.066,3.76
				c1.415,1.063,3.201,1.883,5.318,2.363c2.135,0.485,4.398,0.574,6.647,0.315c2.263-0.26,4.496-0.868,6.574-1.769
				c2.076-0.898,3.98-2.086,5.586-3.497c0.88-0.772,1.662-1.614,2.335-2.505c-0.879-0.75-1.788-1.458-2.739-2.123
				c-0.327,0.349-0.677,0.692-1.049,1.018c-1.266,1.091-2.758,2.014-4.385,2.715c-1.627,0.703-3.378,1.18-5.152,1.391
				c-1.766,0.213-3.542,0.156-5.232-0.208c-1.675-0.356-3.096-0.979-4.229-1.795c-1.124-0.807-1.963-1.799-2.495-2.909
				c-0.524-1.095-0.744-2.303-0.636-3.559c0.085-1.037,0.399-2.108,0.951-3.176c-1.127,0.045-2.239,0.142-3.331,0.286
				c-0.074,0.112-0.147,0.22-0.219,0.334C14.504,13.768,13.94,15.397,13.778,16.973"/>
			<path fill="#00D3DE" d="M16.231,8.327c1.826-1.453,3.916-2.672,6.139-3.607c2.219-0.935,4.596-1.593,6.997-1.929
				c2.413-0.33,4.873-0.335,7.26,0.048c2.415,0.388,4.542,1.135,6.324,2.165c1.808,1.054,3.265,2.395,4.303,3.957
				c1.058,1.588,1.679,3.399,1.793,5.34c0.117,1.979-0.295,4.092-1.315,6.237c-0.335,0.702-0.729,1.383-1.169,2.042
				c0.845,0.881,1.648,1.801,2.406,2.757c0.42-0.677,0.799-1.374,1.133-2.089c1.188-2.566,1.648-5.085,1.485-7.439
				c-0.162-2.303-0.921-4.443-2.188-6.316c-1.24-1.835-2.962-3.411-5.096-4.636c-2.087-1.204-4.576-2.076-7.396-2.522
				c-2.78-0.442-5.638-0.435-8.441-0.044c-2.79,0.385-5.545,1.15-8.13,2.235c-2.589,1.091-5.026,2.508-7.163,4.196
				c-1.794,1.417-3.389,3.039-4.7,4.83c1.231-0.432,2.49-0.798,3.777-1.095C13.35,10.928,14.701,9.542,16.231,8.327"/>
			<path fill="#002E67" d="M5.041,21.548c-0.327,2.309-0.075,4.563,0.727,6.634c0.82,2.111,2.21,4.032,4.141,5.624
				c1.967,1.62,3.493,2.89,6.516,3.656c3.067,0.78,6.341,0.966,9.613,0.619c3.294-0.349,6.56-1.227,9.595-2.562
				c3.026-1.32,6.798-3.083,9.12-5.183c1.668-1.51,3.095-3.192,4.214-5c-0.756-0.956-1.561-1.876-2.404-2.757
				c-0.922,1.393-2.061,2.69-3.377,3.862c-1.96,1.747-4.285,3.213-6.829,4.317c-2.547,1.11-5.287,1.853-8.053,2.155
				c-2.755,0.307-5.512,0.176-8.109-0.447c-2.564-0.617-4.716-1.651-6.412-2.986c-1.666-1.308-2.883-2.896-3.617-4.661
				c-0.722-1.73-0.973-3.621-0.737-5.571c0.232-1.917,0.947-3.893,2.167-5.834c0.204-0.328,0.425-0.646,0.654-0.958
				c-1.288,0.297-2.546,0.663-3.777,1.095c-0.271,0.366-0.53,0.74-0.772,1.12C6.238,16.951,5.361,19.278,5.041,21.548"/>
		</g>
	</g>
</g>
</svg>
