<?xml version="1.0" encoding="utf-8"?>
<!-- Generator: Adobe Illustrator 16.0.0, SVG Export Plug-In . SVG Version: 6.00 Build 0)  -->
<!DOCTYPE svg PUBLIC "-//W3C//DTD SVG 1.1//EN" "http://www.w3.org/Graphics/SVG/1.1/DTD/svg11.dtd">
<svg version="1.1" xmlns="http://www.w3.org/2000/svg" xmlns:xlink="http://www.w3.org/1999/xlink" x="0px" y="0px"
	 width="226.667px" height="65.636px" viewBox="0 0 226.667 65.636" enable-background="new 0 0 226.667 65.636"
	 xml:space="preserve">
<g id="Capa_3">
</g>
<g id="Capa_1">
</g>
<g id="Capa_2">
	<g>
		<g>
			<path fill="#002E67" d="M61.223,53.613c-2.032,0-3.507-1.19-3.507-4.063v-1.669c0-2.873,1.475-4.063,3.507-4.063
				c2.031,0,3.493,1.19,3.493,4.063v1.669C64.716,52.423,63.254,53.613,61.223,53.613z M63.526,47.881
				c0-2.174-0.88-3.002-2.303-3.002c-1.411,0-2.316,0.828-2.316,3.002v1.669c0,2.174,0.893,3.002,2.316,3.002
				c1.41,0,2.303-0.828,2.303-3.002V47.881z"/>
			<path fill="#002E67" d="M68.96,49.692c-0.414,0-0.958-0.039-1.294-0.064v3.636c0,0.129-0.09,0.259-0.233,0.259h-0.699
				c-0.129,0-0.233-0.116-0.233-0.259v-9.019c0-0.182,0.116-0.298,0.311-0.324c0.557-0.065,1.397-0.104,2.148-0.104
				c2.096,0,3.623,0.725,3.623,2.808v0.168C72.583,48.955,71.056,49.692,68.96,49.692z M71.406,46.626
				c0-1.307-0.776-1.812-2.446-1.812c-0.401,0-0.983,0.025-1.294,0.052v3.791c0.297,0.013,0.958,0.052,1.294,0.052
				c1.773,0,2.446-0.569,2.446-1.915V46.626z"/>
			<path fill="#002E67" d="M79.453,53.548c-0.492,0.052-1.76,0.065-2.523,0.065c-1.812,0-2.756-0.686-2.756-2.407v-4.981
				c0-1.721,0.944-2.407,2.756-2.407c0.764,0,1.98,0.026,2.523,0.078c0.078,0.013,0.129,0.104,0.129,0.181v0.647
				c0,0.091-0.052,0.155-0.142,0.155h-2.498c-1.372,0-1.591,0.362-1.591,1.346v1.799h3.972c0.142,0,0.259,0.116,0.259,0.259v0.491
				c0,0.143-0.117,0.259-0.259,0.259h-3.972v2.174c0,0.983,0.22,1.346,1.591,1.346h2.498c0.09,0,0.142,0.065,0.142,0.155v0.66
				C79.582,53.445,79.53,53.535,79.453,53.548z"/>
			<path fill="#002E67" d="M87.72,53.522h-0.725c-0.129,0-0.22-0.116-0.22-0.259v-5.719c0-2.251-0.776-2.705-2.381-2.705
				c-0.557,0-1.592,0.052-1.915,0.078v8.346c0,0.129-0.091,0.259-0.233,0.259h-0.711c-0.142,0-0.233-0.116-0.233-0.259v-8.851
				c0-0.323,0.104-0.414,0.362-0.453c0.686-0.104,2.096-0.155,2.756-0.155c2.329,0,3.533,0.88,3.533,3.74v5.719
				C87.953,53.393,87.863,53.522,87.72,53.522z"/>
			<path fill="#002E67" d="M99.145,53.522h-0.711c-0.13,0-0.233-0.116-0.233-0.259v-3.83h-3.959v3.83
				c0,0.129-0.091,0.259-0.233,0.259h-0.711c-0.129,0-0.233-0.129-0.233-0.259v-6.768c0-1.979,0.919-2.678,2.782-2.678h0.75
				c1.851,0,2.782,0.699,2.782,2.678v6.768C99.377,53.393,99.274,53.522,99.145,53.522z M98.2,46.496
				c0-1.346-0.427-1.643-1.604-1.643h-0.75c-1.178,0-1.604,0.297-1.604,1.643v1.902H98.2V46.496z"/>
			<path fill="#002E67" d="M103.854,49.692c-0.414,0-0.958-0.039-1.294-0.064v3.636c0,0.129-0.09,0.259-0.233,0.259h-0.699
				c-0.129,0-0.233-0.116-0.233-0.259v-9.019c0-0.182,0.116-0.298,0.311-0.324c0.557-0.065,1.397-0.104,2.148-0.104
				c2.096,0,3.623,0.725,3.623,2.808v0.168C107.477,48.955,105.95,49.692,103.854,49.692z M106.299,46.626
				c0-1.307-0.776-1.812-2.446-1.812c-0.401,0-0.983,0.025-1.294,0.052v3.791c0.297,0.013,0.958,0.052,1.294,0.052
				c1.773,0,2.446-0.569,2.446-1.915V46.626z"/>
			<path fill="#002E67" d="M110.141,53.522h-0.711c-0.129,0-0.233-0.116-0.233-0.259v-9.109c0-0.129,0.091-0.246,0.233-0.246h0.711
				c0.13,0,0.233,0.104,0.233,0.246v9.109C110.375,53.393,110.284,53.522,110.141,53.522z"/>
			<path fill="#002E67" d="M114.476,53.613c-0.479,0-1.411-0.039-2.045-0.194c-0.168-0.039-0.271-0.116-0.271-0.259v-0.453
				c0-0.116,0.104-0.194,0.233-0.194c0.026,0,0.039,0,0.052,0c0.621,0.078,1.566,0.142,2.032,0.142c0.841,0,1.281-0.22,1.281-0.918
				c0-0.388-0.233-0.634-0.97-1.074l-1.307-0.776c-0.79-0.479-1.32-1.035-1.32-1.851c0-1.346,1.009-1.721,2.342-1.721
				c0.725,0,1.411,0.064,2.019,0.168c0.168,0.026,0.246,0.116,0.246,0.259v0.427c0,0.155-0.091,0.22-0.22,0.22
				c-0.013,0-0.026,0-0.039,0c-0.453-0.039-1.281-0.104-2.006-0.104s-1.203,0.09-1.203,0.75c0,0.388,0.298,0.634,0.893,0.983
				l1.281,0.764c1.074,0.634,1.423,1.19,1.423,1.954C116.896,53.057,115.925,53.613,114.476,53.613z"/>
			<path fill="#002E67" d="M126.896,49.032h-3.972v4.231c0,0.143-0.117,0.259-0.259,0.259h-0.66c-0.143,0-0.259-0.116-0.259-0.259
				v-7.039c0-1.721,0.944-2.407,2.756-2.407c0.764,0,1.98,0.026,2.523,0.078c0.078,0.013,0.129,0.104,0.129,0.181v0.647
				c0,0.091-0.052,0.155-0.142,0.155h-2.498c-1.372,0-1.591,0.362-1.591,1.346v1.799h3.972c0.142,0,0.259,0.116,0.259,0.259v0.491
				C127.155,48.916,127.039,49.032,126.896,49.032z"/>
			<path fill="#002E67" d="M131.994,53.613c-2.031,0-3.506-1.19-3.506-4.063v-1.669c0-2.873,1.475-4.063,3.506-4.063
				c2.032,0,3.494,1.19,3.494,4.063v1.669C135.488,52.423,134.025,53.613,131.994,53.613z M134.297,47.881
				c0-2.174-0.88-3.002-2.304-3.002c-1.41,0-2.316,0.828-2.316,3.002v1.669c0,2.174,0.893,3.002,2.316,3.002
				c1.411,0,2.304-0.828,2.304-3.002V47.881z"/>
			<path fill="#002E67" d="M143.677,53.522h-0.828c-0.155,0-0.232,0-0.336-0.168l-2.316-3.856c-0.039,0-0.078,0-0.116,0
				c-0.078,0-0.143,0-0.22,0c-0.427,0-0.738-0.013-1.423-0.039v3.804c0,0.129-0.091,0.259-0.233,0.259h-0.699
				c-0.129,0-0.233-0.116-0.233-0.259v-9.058c0-0.181,0.078-0.259,0.311-0.285c0.556-0.065,1.527-0.104,2.277-0.104
				c2.044,0,3.623,0.686,3.623,2.782v0.091c0,1.449-0.854,2.303-2.032,2.614l2.355,3.934c0.025,0.039,0.039,0.078,0.039,0.117
				C143.846,53.445,143.781,53.522,143.677,53.522z M142.319,46.6c0-1.294-0.841-1.721-2.458-1.721c-0.401,0-1.113,0-1.423,0.039
				v3.545c0.569,0.013,1.126,0.026,1.423,0.026c1.591,0,2.458-0.401,2.458-1.799V46.6z"/>
			<path fill="#002E67" d="M151.829,53.613c-2.032,0-3.507-1.19-3.507-4.063v-1.669c0-2.873,1.475-4.063,3.507-4.063
				c2.031,0,3.493,1.19,3.493,4.063v1.669C155.322,52.423,153.86,53.613,151.829,53.613z M154.131,47.881
				c0-2.174-0.88-3.002-2.303-3.002c-1.411,0-2.316,0.828-2.316,3.002v1.669c0,2.174,0.893,3.002,2.316,3.002
				c1.41,0,2.303-0.828,2.303-3.002V47.881z"/>
			<path fill="#002E67" d="M159.565,49.692c-0.414,0-0.958-0.039-1.294-0.064v3.636c0,0.129-0.091,0.259-0.233,0.259h-0.699
				c-0.129,0-0.233-0.116-0.233-0.259v-9.019c0-0.182,0.117-0.298,0.311-0.324c0.556-0.065,1.397-0.104,2.148-0.104
				c2.096,0,3.623,0.725,3.623,2.808v0.168C163.188,48.955,161.661,49.692,159.565,49.692z M162.01,46.626
				c0-1.307-0.776-1.812-2.445-1.812c-0.401,0-0.983,0.025-1.294,0.052v3.791c0.298,0.013,0.958,0.052,1.294,0.052
				c1.772,0,2.445-0.569,2.445-1.915V46.626z"/>
			<path fill="#002E67" d="M170.058,53.548c-0.492,0.052-1.76,0.065-2.523,0.065c-1.812,0-2.756-0.686-2.756-2.407v-4.981
				c0-1.721,0.944-2.407,2.756-2.407c0.764,0,1.98,0.026,2.523,0.078c0.078,0.013,0.129,0.104,0.129,0.181v0.647
				c0,0.091-0.052,0.155-0.142,0.155h-2.498c-1.372,0-1.591,0.362-1.591,1.346v1.799h3.972c0.142,0,0.259,0.116,0.259,0.259v0.491
				c0,0.143-0.117,0.259-0.259,0.259h-3.972v2.174c0,0.983,0.22,1.346,1.591,1.346h2.498c0.09,0,0.142,0.065,0.142,0.155v0.66
				C170.188,53.445,170.136,53.535,170.058,53.548z"/>
			<path fill="#002E67" d="M178.326,53.522h-0.725c-0.129,0-0.22-0.116-0.22-0.259v-5.719c0-2.251-0.776-2.705-2.381-2.705
				c-0.557,0-1.592,0.052-1.915,0.078v8.346c0,0.129-0.091,0.259-0.233,0.259h-0.711c-0.142,0-0.233-0.116-0.233-0.259v-8.851
				c0-0.323,0.104-0.414,0.362-0.453c0.686-0.104,2.096-0.155,2.756-0.155c2.329,0,3.533,0.88,3.533,3.74v5.719
				C178.559,53.393,178.468,53.522,178.326,53.522z"/>
			<path fill="#002E67" d="M192.752,53.522h-0.725c-0.129,0-0.233-0.116-0.233-0.259v-5.654c0-2.42-0.621-2.743-2.898-2.743v8.397
				c0,0.129-0.091,0.259-0.233,0.259h-0.711c-0.143,0-0.233-0.116-0.233-0.259v-8.397c-2.277,0-2.898,0.323-2.898,2.743v5.654
				c0,0.129-0.09,0.259-0.232,0.259h-0.725c-0.13,0-0.233-0.116-0.233-0.259v-5.654c0-3.312,1.359-3.792,4.685-3.792
				c3.325,0,4.671,0.479,4.671,3.792v5.654C192.985,53.393,192.894,53.522,192.752,53.522z"/>
			<path fill="#002E67" d="M196.038,53.522h-0.712c-0.129,0-0.233-0.116-0.233-0.259v-9.109c0-0.129,0.09-0.246,0.233-0.246h0.712
				c0.129,0,0.232,0.104,0.232,0.246v9.109C196.27,53.393,196.18,53.522,196.038,53.522z"/>
			<path fill="#002E67" d="M204.835,53.522h-0.725c-0.129,0-0.22-0.116-0.22-0.259v-5.719c0-2.251-0.776-2.705-2.381-2.705
				c-0.557,0-1.592,0.052-1.915,0.078v8.346c0,0.129-0.091,0.259-0.233,0.259h-0.711c-0.142,0-0.233-0.116-0.233-0.259v-8.851
				c0-0.323,0.104-0.414,0.362-0.453c0.686-0.104,2.096-0.155,2.756-0.155c2.329,0,3.533,0.88,3.533,3.74v5.719
				C205.068,53.393,204.978,53.522,204.835,53.522z"/>
			<path fill="#002E67" d="M209.609,53.613c-0.983,0-1.979-0.065-2.354-0.13c-0.168-0.025-0.272-0.129-0.272-0.323v-8.89
				c0-0.181,0.104-0.297,0.272-0.323c0.375-0.064,1.371-0.129,2.354-0.129c2.394,0,3.921,1.229,3.921,4.024v1.747
				C213.53,52.358,212.003,53.613,209.609,53.613z M212.352,47.842c0-2.342-1.19-3.015-2.743-3.015
				c-0.608,0-1.009,0.013-1.436,0.039v7.712c0.414,0.025,0.828,0.025,1.436,0.025c1.553,0,2.743-0.686,2.743-3.015V47.842z"/>
			<path fill="#002E67" d="M217.541,53.613c-0.906,0-1.579-0.091-2.148-0.182c-0.22-0.039-0.246-0.09-0.246-0.232v-0.518
				c0-0.143,0.104-0.207,0.22-0.207c0.013,0,0.025,0,0.039,0c0.595,0.052,1.54,0.077,2.135,0.077c1.553,0,1.967-0.621,1.967-1.526
				c0-0.647-0.375-1.01-1.553-1.734l-1.255-0.763c-1.19-0.725-1.786-1.384-1.786-2.419c0-1.566,1.126-2.291,3.093-2.291
				c0.763,0,1.76,0.078,2.251,0.155c0.13,0.026,0.22,0.09,0.22,0.22v0.556c0,0.129-0.09,0.207-0.22,0.207c-0.013,0-0.013,0-0.025,0
				c-0.569-0.039-1.476-0.078-2.226-0.078c-1.333,0-1.902,0.285-1.902,1.229c0,0.608,0.427,0.97,1.41,1.565l1.19,0.712
				c1.501,0.893,2.032,1.604,2.032,2.64C220.736,52.268,220.089,53.613,217.541,53.613z"/>
		</g>
		<g>
			<path fill="#FFFFFF" d="M97.867,28.786c-1.204,0-2.315-0.115-3.634-0.578c-1.319,0.463-2.407,0.578-3.611,0.578
				c-3.519,0-4.907-2.291-4.907-6.319V11.865c0-0.231,0.185-0.439,0.439-0.439h1.227c0.231,0,0.44,0.208,0.44,0.439v10.602
				c0,3.125,0.625,4.537,3.241,4.537c0.393,0,1.62-0.069,2.129-0.208V11.865c0-0.231,0.185-0.439,0.44-0.439h1.25
				c0.254,0,0.417,0.162,0.417,0.416v14.954c0.509,0.139,1.736,0.208,2.129,0.208c2.616,0,3.241-1.412,3.241-4.537V11.865
				c0-0.231,0.185-0.439,0.44-0.439h1.227c0.231,0,0.44,0.208,0.44,0.439v10.602C102.774,26.495,101.386,28.786,97.867,28.786z"/>
			<path fill="#FFFFFF" d="M117.264,28.624h-1.273c-0.231,0-0.417-0.208-0.417-0.463v-6.852h-7.083v6.852
				c0,0.231-0.162,0.463-0.417,0.463h-1.273c-0.231,0-0.417-0.231-0.417-0.463V16.054c0-3.541,1.644-4.791,4.977-4.791h1.343
				c3.31,0,4.977,1.25,4.977,4.791v12.106C117.681,28.392,117.496,28.624,117.264,28.624z M115.574,16.054
				c0-2.407-0.764-2.939-2.87-2.939h-1.343c-2.106,0-2.87,0.532-2.87,2.939v3.403h7.083V16.054z"/>
			<path fill="#FFFFFF" d="M132.749,28.624h-1.481c-0.278,0-0.417,0-0.602-0.301l-4.143-6.897c-0.07,0-0.139,0-0.208,0
				c-0.139,0-0.255,0-0.394,0c-0.764,0-1.319-0.023-2.546-0.07v6.806c0,0.231-0.162,0.463-0.417,0.463h-1.25
				c-0.231,0-0.417-0.208-0.417-0.463V11.958c0-0.324,0.139-0.463,0.555-0.509c0.996-0.116,2.731-0.186,4.074-0.186
				c3.657,0,6.481,1.227,6.481,4.977v0.162c0,2.593-1.528,4.12-3.634,4.676l4.213,7.037c0.046,0.069,0.069,0.139,0.069,0.208
				C133.05,28.485,132.934,28.624,132.749,28.624z M130.318,16.24c0-2.314-1.504-3.078-4.398-3.078c-0.718,0-1.991,0-2.546,0.069
				v6.342c1.019,0.023,2.014,0.047,2.546,0.047c2.847,0,4.398-0.718,4.398-3.218V16.24z"/>
			<path fill="#FFFFFF" d="M145.202,28.67c-0.879,0.092-3.148,0.115-4.514,0.115c-3.241,0-4.93-1.227-4.93-4.306v-8.911
				c0-3.079,1.689-4.306,4.93-4.306c1.366,0,3.542,0.046,4.514,0.139c0.139,0.023,0.232,0.186,0.232,0.324v1.157
				c0,0.162-0.093,0.278-0.255,0.278h-4.467c-2.454,0-2.847,0.647-2.847,2.407v3.217h7.106c0.255,0,0.463,0.209,0.463,0.463v0.88
				c0,0.255-0.208,0.463-0.463,0.463h-7.106v3.889c0,1.76,0.394,2.408,2.847,2.408h4.467c0.162,0,0.255,0.115,0.255,0.277v1.181
				C145.434,28.485,145.341,28.647,145.202,28.67z"/>
		</g>
		<g>
			<path fill="#002E67" d="M67.703,20.736h-6.949v7.402c0,0.25-0.204,0.454-0.452,0.454h-1.155c-0.249,0-0.451-0.203-0.451-0.454
				V15.822c0-3.011,1.651-4.21,4.819-4.21c1.338,0,3.462,0.045,4.417,0.134c0.135,0.026,0.224,0.184,0.224,0.319v1.133
				c0,0.159-0.089,0.272-0.248,0.272h-4.369c-2.399,0-2.785,0.633-2.785,2.353v3.147h6.949c0.25,0,0.453,0.203,0.453,0.454v0.859
				C68.155,20.531,67.953,20.736,67.703,20.736"/>
			<path fill="#002E67" d="M73.295,28.592h-1.245c-0.228,0-0.408-0.203-0.408-0.454V12.201c0-0.227,0.159-0.43,0.408-0.43h1.245
				c0.227,0,0.408,0.181,0.408,0.43v15.938C73.704,28.367,73.545,28.592,73.295,28.592"/>
			<path fill="#002E67" d="M81.717,22.967h-4.505c-0.25,0-0.43-0.136-0.43-0.385v-0.884c0-0.226,0.18-0.407,0.43-0.407h4.505
				c0.248,0,0.431,0.157,0.431,0.407v0.884C82.147,22.809,81.965,22.967,81.717,22.967"/>
			<path fill="#FFFFFF" d="M38.823,15.593c0.925-0.792,1.684-1.708,2.201-2.713c0.515-0.994,0.744-1.983,0.723-2.918
				c-0.024-0.921-0.297-1.79-0.783-2.556c-0.485-0.763-1.181-1.423-2.058-1.943c-0.871-0.518-1.924-0.894-3.128-1.091
				c-1.198-0.2-2.438-0.2-3.66-0.034c-1.216,0.166-2.413,0.499-3.529,0.971c-1.122,0.471-2.162,1.087-3.063,1.818
				c-0.904,0.728-1.67,1.581-2.23,2.523c-0.379,0.642-0.629,1.282-0.776,1.914c5.661,0.313,10.971,1.928,15.646,4.543
				C38.392,15.941,38.613,15.773,38.823,15.593"/>
			<path fill="#002E67" d="M22.905,15.09c0.412,0.808,1.05,1.525,1.894,2.105c0.854,0.586,1.91,1.029,3.154,1.278
				c1.248,0.254,2.56,0.285,3.86,0.126c1.302-0.162,2.587-0.515,3.78-1.026c0.93-0.397,1.794-0.894,2.57-1.466
				c-4.676-2.616-9.982-4.23-15.647-4.543c-0.067,0.306-0.123,0.61-0.144,0.908C22.312,13.4,22.499,14.286,22.905,15.09"/>
			<path fill="#FFFFFF" d="M19.395,10.905c0.766-1.263,1.798-2.403,3.015-3.381c1.205-0.968,2.598-1.789,4.087-2.415
				c1.49-0.626,3.083-1.068,4.699-1.291c1.621-0.221,3.271-0.221,4.865,0.039c1.61,0.26,3.017,0.764,4.187,1.452
				c1.185,0.698,2.128,1.585,2.789,2.608c0.668,1.037,1.047,2.209,1.09,3.46c0.046,1.27-0.25,2.617-0.936,3.979
				c-0.487,0.967-1.139,1.874-1.918,2.707c0.95,0.665,1.862,1.372,2.739,2.123c0.549-0.726,1.027-1.485,1.415-2.279
				c0.854-1.746,1.211-3.467,1.134-5.083c-0.072-1.592-0.569-3.081-1.431-4.387c-0.847-1.289-2.038-2.409-3.534-3.279
				c-1.473-0.864-3.242-1.485-5.25-1.812c-1.996-0.321-4.053-0.318-6.069-0.042c-2.013,0.276-3.997,0.829-5.852,1.61
				c-1.857,0.782-3.599,1.801-5.115,3.014c-1.42,1.133-2.646,2.444-3.596,3.898c1.096-0.143,2.204-0.241,3.331-0.288
				C19.154,11.329,19.27,11.114,19.395,10.905"/>
			<path fill="#002E67" d="M13.778,16.973c-0.167,1.598,0.08,3.143,0.708,4.546c0.64,1.429,1.672,2.712,3.066,3.76
				c1.415,1.063,3.201,1.883,5.318,2.363c2.135,0.485,4.398,0.574,6.647,0.315c2.263-0.259,4.496-0.868,6.574-1.768
				c2.076-0.899,3.98-2.086,5.586-3.497c0.88-0.773,1.662-1.614,2.335-2.505c-0.879-0.75-1.788-1.458-2.739-2.123
				c-0.327,0.349-0.677,0.693-1.049,1.018c-1.266,1.091-2.758,2.014-4.385,2.715c-1.627,0.703-3.378,1.18-5.152,1.39
				c-1.766,0.213-3.542,0.157-5.232-0.208c-1.675-0.356-3.096-0.978-4.229-1.795c-1.124-0.806-1.963-1.799-2.495-2.909
				c-0.524-1.095-0.744-2.303-0.636-3.559c0.085-1.037,0.399-2.108,0.951-3.176c-1.127,0.045-2.239,0.142-3.331,0.286
				c-0.074,0.112-0.147,0.22-0.219,0.334C14.504,13.768,13.94,15.398,13.778,16.973"/>
			<path fill="#FFFFFF" d="M16.231,8.327c1.826-1.453,3.916-2.672,6.139-3.607c2.219-0.935,4.596-1.593,6.997-1.929
				c2.413-0.33,4.873-0.335,7.26,0.048c2.415,0.387,4.542,1.135,6.324,2.165c1.808,1.053,3.265,2.395,4.303,3.957
				c1.058,1.588,1.679,3.4,1.793,5.34c0.117,1.98-0.295,4.092-1.315,6.237c-0.335,0.702-0.729,1.383-1.169,2.042
				c0.845,0.881,1.648,1.801,2.406,2.757c0.42-0.677,0.799-1.374,1.133-2.089c1.188-2.566,1.648-5.085,1.485-7.439
				c-0.162-2.302-0.921-4.443-2.188-6.316c-1.24-1.834-2.962-3.411-5.096-4.635c-2.087-1.204-4.576-2.077-7.396-2.523
				c-2.78-0.442-5.638-0.434-8.441-0.044c-2.79,0.385-5.545,1.151-8.13,2.235c-2.589,1.091-5.026,2.508-7.163,4.196
				c-1.794,1.417-3.389,3.039-4.7,4.83c1.231-0.432,2.49-0.798,3.777-1.095C13.35,10.928,14.701,9.542,16.231,8.327"/>
			<path fill="#002E67" d="M5.041,21.548c-0.327,2.309-0.075,4.564,0.727,6.634c0.82,2.111,2.21,4.033,4.141,5.624
				c1.967,1.62,3.493,2.89,6.516,3.656c3.067,0.78,6.341,0.966,9.613,0.619c3.294-0.349,6.56-1.227,9.595-2.561
				c3.026-1.32,6.798-3.083,9.12-5.183c1.668-1.51,3.095-3.193,4.214-5c-0.756-0.957-1.561-1.876-2.404-2.757
				c-0.922,1.393-2.061,2.69-3.377,3.862c-1.96,1.747-4.285,3.213-6.829,4.318c-2.547,1.11-5.287,1.852-8.053,2.155
				c-2.755,0.307-5.512,0.176-8.109-0.448c-2.564-0.617-4.716-1.651-6.412-2.986c-1.666-1.308-2.883-2.896-3.617-4.661
				c-0.722-1.73-0.973-3.622-0.737-5.571c0.232-1.917,0.947-3.893,2.167-5.834c0.204-0.328,0.425-0.646,0.654-0.958
				c-1.288,0.297-2.546,0.663-3.777,1.095c-0.271,0.367-0.53,0.74-0.772,1.12C6.238,16.952,5.361,19.279,5.041,21.548"/>
		</g>
	</g>
</g>
</svg>
