<?xml version="1.0" encoding="utf-8"?>
<!-- Generator: Adobe Illustrator 16.0.0, SVG Export Plug-In . SVG Version: 6.00 Build 0)  -->
<!DOCTYPE svg PUBLIC "-//W3C//DTD SVG 1.1//EN" "http://www.w3.org/Graphics/SVG/1.1/DTD/svg11.dtd">
<svg version="1.1" id="Capa_1" xmlns="http://www.w3.org/2000/svg" xmlns:xlink="http://www.w3.org/1999/xlink" x="0px" y="0px"
	 width="758px" height="453px" viewBox="0 0 758 453" enable-background="new 0 0 758 453" xml:space="preserve">
<path fill="#00D3DE" d="M271.678,88.066c2.393,0.394,4.48,1.142,6.215,2.167c1.744,1.036,3.125,2.348,4.085,3.86
	c0.971,1.523,1.508,3.246,1.554,5.081c0.045,1.851-0.412,3.817-1.432,5.793c-1.029,1.997-2.534,3.817-4.377,5.392
	c-1.85,1.582-4.03,2.916-6.402,3.932c-2.375,1.018-4.927,1.719-7.518,2.038c-2.578,0.318-5.186,0.257-7.666-0.246
	c-2.467-0.496-4.57-1.377-6.262-2.541c-1.68-1.151-2.949-2.582-3.767-4.186c-0.812-1.589-1.175-3.353-1.056-5.193
	c0.119-1.822,0.718-3.724,1.837-5.609c1.108-1.875,2.627-3.565,4.426-5.017c1.789-1.449,3.858-2.669,6.084-3.608
	c2.22-0.937,4.599-1.595,7.015-1.926C266.836,87.673,269.299,87.673,271.678,88.066"/>
<path fill="#00D3DE" d="M251.172,125.033c3.356,0.717,6.892,0.828,10.399,0.41c3.521-0.418,7-1.368,10.233-2.763
	c3.228-1.391,6.193-3.222,8.705-5.397c2.492-2.165,4.522-4.657,5.896-7.392c1.361-2.705,1.95-5.382,1.857-7.904
	c-0.088-2.487-0.842-4.818-2.168-6.875c-1.312-2.032-3.185-3.795-5.537-5.18c-2.321-1.367-5.121-2.364-8.315-2.885
	c-3.172-0.517-6.448-0.517-9.668-0.075c-3.209,0.442-6.373,1.32-9.33,2.567c-2.96,1.245-5.726,2.868-8.123,4.798
	c-2.414,1.938-4.466,4.199-5.985,6.713c-1.532,2.535-2.379,5.097-2.588,7.565c-0.211,2.495,0.229,4.898,1.269,7.073
	c1.054,2.202,2.722,4.174,4.952,5.779C245.024,123.084,247.846,124.322,251.172,125.033 M272.805,86.034
	c3.994,0.644,7.504,1.891,10.433,3.6c2.964,1.733,5.342,3.948,7.021,6.509c1.705,2.597,2.692,5.554,2.842,8.718
	c0.152,3.21-0.56,6.631-2.254,10.096c-1.724,3.513-4.283,6.722-7.449,9.503c-3.189,2.804-6.973,5.159-11.092,6.944
	c-4.127,1.79-8.569,2.997-13.06,3.515c-4.47,0.51-8.96,0.336-13.208-0.627c-4.203-0.951-7.748-2.581-10.558-4.693
	c-2.774-2.085-4.825-4.633-6.095-7.467c-1.248-2.792-1.737-5.86-1.405-9.034c0.323-3.128,1.442-6.363,3.411-9.557
	c1.945-3.154,4.543-5.985,7.578-8.407c3.013-2.409,6.47-4.432,10.162-5.986c3.686-1.553,7.625-2.648,11.623-3.198
	C264.762,85.399,268.844,85.396,272.805,86.034"/>
<path fill="#00D3DE" d="M295.415,120.182c-2.063,4.331-5.168,8.292-9.022,11.729c-3.89,3.471-8.518,6.377-13.564,8.577
	c-5.059,2.204-10.502,3.68-15.997,4.282c-5.47,0.607-10.947,0.345-16.11-0.896c-5.093-1.223-9.37-3.277-12.732-5.924
	c-3.309-2.6-5.727-5.761-7.185-9.264c-1.431-3.433-1.94-7.19-1.467-11.064c0.465-3.806,1.881-7.729,4.305-11.589
	c2.39-3.801,5.546-7.199,9.206-10.107c3.631-2.885,7.781-5.306,12.201-7.162c4.411-1.857,9.122-3.167,13.893-3.828
	c4.793-0.661,9.68-0.671,14.42,0.089c4.799,0.766,9.024,2.256,12.561,4.31c3.591,2.083,6.484,4.756,8.549,7.851
	c2.098,3.153,3.336,6.749,3.564,10.609C298.262,111.724,297.443,115.922,295.415,120.182 M303.074,110.789
	c-0.318-4.572-1.832-8.829-4.346-12.546c-2.461-3.642-5.887-6.774-10.117-9.212c-4.15-2.391-9.094-4.121-14.689-5.011
	c-5.523-0.877-11.205-0.86-16.775-0.087c-5.541,0.769-11.012,2.291-16.143,4.447c-5.143,2.16-9.984,4.976-14.234,8.332
	c-4.295,3.391-8.02,7.364-10.869,11.816c-2.901,4.531-4.64,9.154-5.272,13.654c-0.649,4.593-0.147,9.069,1.442,13.178
	c1.627,4.2,4.392,8.016,8.224,11.172c3.907,3.221,8.914,5.743,14.922,7.271c6.097,1.547,12.595,1.915,19.099,1.227
	c6.543-0.689,13.03-2.437,19.061-5.08c6.011-2.635,11.515-6.131,16.13-10.307c4.563-4.125,8.218-8.885,10.621-14.077
	C302.484,120.472,303.4,115.467,303.074,110.789"/>
<path fill="#002759" d="M245.053,104.163c-0.119,1.84,0.244,3.605,1.056,5.193c0.817,1.604,2.087,3.036,3.767,4.186
	c1.691,1.164,3.795,2.045,6.262,2.541c2.48,0.503,5.088,0.564,7.666,0.246c2.591-0.318,5.143-1.019,7.518-2.038
	c2.117-0.906,4.081-2.068,5.793-3.433c-9.497-5.179-20.236-8.361-31.658-8.991C245.238,102.643,245.103,103.409,245.053,104.163"/>
<path fill="#002759" d="M280.51,117.283c-2.512,2.175-5.479,4.006-8.705,5.397c-3.234,1.395-6.713,2.345-10.234,2.763
	c-3.507,0.418-7.042,0.307-10.398-0.41c-3.326-0.711-6.147-1.949-8.401-3.566c-2.231-1.605-3.899-3.577-4.953-5.779
	c-1.04-2.176-1.479-4.578-1.269-7.073c0.19-2.228,0.9-4.528,2.162-6.819c-2.192,0.074-4.363,0.241-6.504,0.498
	c-0.283,0.41-0.556,0.825-0.816,1.247c-1.969,3.194-3.088,6.429-3.411,9.557c-0.332,3.174,0.157,6.242,1.405,9.034
	c1.27,2.834,3.32,5.382,6.095,7.467c2.81,2.112,6.354,3.742,10.558,4.693c4.247,0.963,8.738,1.137,13.208,0.627
	c4.49-0.518,8.933-1.725,13.06-3.515c4.119-1.785,7.902-4.14,11.092-6.944c2.023-1.78,3.799-3.734,5.266-5.83
	c-1.749-1.429-3.562-2.782-5.439-4.052C282.398,115.526,281.491,116.431,280.51,117.283"/>
<path fill="#002759" d="M293.771,123.204c-1.939,3.162-4.44,6.087-7.378,8.707c-3.891,3.471-8.519,6.377-13.564,8.577
	c-5.058,2.204-10.501,3.68-15.998,4.282c-5.468,0.607-10.947,0.345-16.109-0.896c-5.094-1.223-9.369-3.277-12.731-5.924
	c-3.31-2.6-5.728-5.761-7.185-9.264c-1.433-3.433-1.94-7.19-1.469-11.064c0.465-3.806,1.881-7.729,4.307-11.589
	c0.562-0.892,1.168-1.762,1.812-2.609c-2.497,0.535-4.946,1.195-7.343,1.972c-0.784,1.016-1.525,2.061-2.211,3.132
	c-2.902,4.53-4.641,9.154-5.273,13.654c-0.647,4.593-0.146,9.069,1.444,13.178c1.627,4.199,4.39,8.016,8.222,11.172
	c3.909,3.221,8.914,5.743,14.922,7.271c6.099,1.547,12.596,1.915,19.101,1.227c6.543-0.689,13.028-2.437,19.059-5.08
	c6.011-2.635,11.517-6.131,16.13-10.307c3.703-3.348,6.81-7.113,9.133-11.188C297.098,126.628,295.473,124.875,293.771,123.204"/>
<line opacity="0.2" fill="none" stroke="#002E67" stroke-width="0.25" stroke-miterlimit="10" x1="0.409" y1="278.819" x2="757.259" y2="278.819"/>
<rect x="39.834" y="292.48" fill="#002759" width="166" height="118"/>
<rect x="380.835" y="292.48" width="166" height="118"/>
<rect x="211.834" y="292.48" fill="#00D3DE" width="165" height="118"/>
<rect x="551.835" y="292.48" fill="#ECEDED" width="166" height="118"/>
<path fill="#707172" d="M623.309,351.629h-6.384v6.8c0,0.229-0.187,0.416-0.416,0.416h-1.061c-0.229,0-0.416-0.187-0.416-0.416
	v-11.312c0-2.766,1.518-3.868,4.43-3.868c1.227,0,3.181,0.042,4.055,0.125c0.125,0.021,0.208,0.167,0.208,0.291v1.04
	c0,0.146-0.083,0.25-0.229,0.25h-4.014c-2.203,0-2.558,0.582-2.558,2.162v2.89h6.384c0.229,0,0.416,0.188,0.416,0.417v0.79
	C623.725,351.44,623.538,351.629,623.309,351.629"/>
<path fill="#707172" d="M628.215,358.845h-1.144c-0.209,0-0.374-0.188-0.374-0.416v-14.64c0-0.207,0.146-0.395,0.374-0.395h1.144
	c0.208,0,0.375,0.166,0.375,0.395v14.64C628.59,358.638,628.443,358.845,628.215,358.845"/>
<path fill="#707172" d="M635.95,353.521h-4.138c-0.229,0-0.395-0.125-0.395-0.354v-0.811c0-0.208,0.166-0.374,0.395-0.374h4.138
	c0.229,0,0.396,0.145,0.396,0.374v0.811C636.346,353.375,636.179,353.521,635.95,353.521"/>
<path fill="#BBBDBE" d="M601.226,348.314c0.646-0.552,1.175-1.189,1.535-1.891c0.358-0.693,0.519-1.381,0.501-2.03
	c-0.015-0.644-0.204-1.247-0.544-1.781c-0.337-0.53-0.82-0.99-1.432-1.353c-0.607-0.361-1.34-0.622-2.179-0.761
	c-0.835-0.138-1.697-0.138-2.548-0.022c-0.847,0.116-1.681,0.348-2.459,0.676c-0.779,0.329-1.506,0.758-2.134,1.265
	c-0.63,0.509-1.162,1.103-1.551,1.759c-0.264,0.446-0.438,0.893-0.542,1.332c3.942,0.219,7.64,1.344,10.896,3.165
	C600.928,348.559,601.08,348.439,601.226,348.314"/>
<path fill="#707172" d="M590.143,347.964c0.287,0.562,0.732,1.062,1.32,1.468c0.593,0.407,1.33,0.716,2.195,0.889
	c0.869,0.178,1.784,0.199,2.688,0.087c0.907-0.111,1.803-0.356,2.635-0.714c0.645-0.275,1.248-0.622,1.789-1.02
	c-3.256-1.822-6.954-2.947-10.896-3.165c-0.051,0.213-0.089,0.426-0.104,0.634C589.729,346.788,589.858,347.404,590.143,347.964"/>
<path fill="#BBBDBE" d="M587.698,345.051c0.532-0.881,1.252-1.673,2.098-2.354c0.842-0.675,1.811-1.245,2.849-1.682
	c1.036-0.437,2.146-0.745,3.271-0.9c1.13-0.153,2.277-0.153,3.39,0.027c1.12,0.182,2.102,0.533,2.915,1.012
	c0.825,0.485,1.482,1.104,1.942,1.816c0.465,0.722,0.729,1.538,0.761,2.409c0.032,0.885-0.174,1.823-0.652,2.772
	c-0.339,0.672-0.793,1.305-1.335,1.884c0.659,0.463,1.295,0.955,1.907,1.478c0.38-0.505,0.714-1.034,0.984-1.585
	c0.596-1.216,0.844-2.415,0.791-3.541c-0.054-1.108-0.399-2.146-0.997-3.056c-0.589-0.897-1.423-1.677-2.462-2.283
	c-1.025-0.601-2.257-1.034-3.657-1.262c-1.389-0.224-2.82-0.222-4.226-0.029c-1.4,0.192-2.782,0.577-4.074,1.121
	c-1.295,0.546-2.507,1.254-3.563,2.099c-0.988,0.789-1.842,1.703-2.504,2.716c0.762-0.101,1.536-0.17,2.319-0.199
	C587.529,345.345,587.609,345.197,587.698,345.051"/>
<path fill="#707172" d="M583.786,349.275c-0.116,1.113,0.056,2.188,0.493,3.167c0.444,0.993,1.164,1.887,2.136,2.618
	c0.985,0.74,2.229,1.311,3.702,1.645c1.489,0.337,3.063,0.399,4.631,0.221c1.574-0.182,3.132-0.604,4.578-1.232
	c1.444-0.626,2.772-1.451,3.889-2.436c0.614-0.538,1.158-1.122,1.628-1.745c-0.612-0.521-1.247-1.015-1.907-1.478
	c-0.229,0.244-0.473,0.481-0.731,0.707c-0.882,0.762-1.922,1.404-3.053,1.893c-1.134,0.49-2.354,0.821-3.588,0.968
	c-1.229,0.146-2.47,0.109-3.646-0.144c-1.166-0.248-2.155-0.683-2.946-1.25c-0.782-0.562-1.366-1.254-1.736-2.025
	c-0.365-0.764-0.519-1.605-0.444-2.479c0.062-0.723,0.28-1.469,0.663-2.211c-0.783,0.029-1.558,0.098-2.319,0.199
	c-0.051,0.077-0.104,0.153-0.152,0.231C584.293,347.045,583.899,348.179,583.786,349.275"/>
<path fill="#BBBDBE" d="M585.493,343.255c1.273-1.013,2.729-1.86,4.277-2.512c1.547-0.65,3.199-1.109,4.871-1.343
	c1.68-0.23,3.393-0.234,5.055,0.033c1.684,0.269,3.164,0.791,4.404,1.509c1.259,0.731,2.274,1.668,2.997,2.755
	c0.736,1.104,1.17,2.365,1.25,3.719c0.08,1.378-0.207,2.849-0.918,4.343c-0.233,0.489-0.508,0.962-0.813,1.423
	c0.59,0.611,1.148,1.253,1.676,1.92c0.293-0.473,0.558-0.957,0.789-1.456c0.827-1.786,1.147-3.54,1.033-5.18
	c-0.112-1.603-0.642-3.096-1.523-4.398c-0.862-1.277-2.064-2.376-3.547-3.229c-1.455-0.839-3.188-1.445-5.15-1.757
	c-1.937-0.308-3.929-0.303-5.881-0.031c-1.943,0.269-3.861,0.802-5.66,1.559c-1.803,0.758-3.501,1.746-4.99,2.923
	c-1.25,0.986-2.358,2.115-3.271,3.362c0.855-0.301,1.733-0.555,2.63-0.763C583.488,345.066,584.43,344.101,585.493,343.255"/>
<path fill="#707172" d="M577.702,352.461c-0.227,1.608-0.052,3.179,0.507,4.62c0.569,1.472,1.539,2.81,2.883,3.917
	c1.371,1.128,3.126,2.013,5.231,2.548c2.138,0.543,4.416,0.672,6.696,0.431c2.294-0.243,4.568-0.855,6.682-1.782
	c2.107-0.923,4.038-2.148,5.655-3.612c1.163-1.051,2.156-2.222,2.936-3.48c-0.526-0.667-1.086-1.309-1.676-1.92
	c-0.643,0.968-1.435,1.872-2.35,2.689c-1.364,1.216-2.986,2.235-4.757,3.007c-1.773,0.772-3.681,1.29-5.608,1.501
	c-1.918,0.213-3.838,0.121-5.646-0.314c-1.786-0.428-3.286-1.148-4.465-2.078c-1.16-0.91-2.009-2.018-2.52-3.245
	c-0.502-1.205-0.68-2.522-0.514-3.881c0.162-1.335,0.659-2.71,1.509-4.062c0.143-0.229,0.296-0.449,0.455-0.668
	c-0.896,0.208-1.774,0.462-2.63,0.763c-0.188,0.254-0.369,0.515-0.539,0.78C578.534,349.262,577.925,350.883,577.702,352.461"/>
<path fill="#BBBDBE" d="M451.803,351.629h-6.385v6.8c0,0.229-0.186,0.416-0.416,0.416h-1.06c-0.229,0-0.416-0.187-0.416-0.416
	v-11.312c0-2.766,1.518-3.868,4.429-3.868c1.228,0,3.182,0.042,4.056,0.125c0.124,0.021,0.208,0.167,0.208,0.291v1.04
	c0,0.146-0.084,0.25-0.229,0.25h-4.014c-2.204,0-2.559,0.582-2.559,2.162v2.89h6.385c0.229,0,0.416,0.188,0.416,0.417v0.79
	C452.219,351.44,452.032,351.629,451.803,351.629"/>
<path fill="#BBBDBE" d="M456.709,358.845h-1.143c-0.21,0-0.375-0.188-0.375-0.416v-14.64c0-0.207,0.146-0.395,0.375-0.395h1.143
	c0.208,0,0.375,0.166,0.375,0.395v14.64C457.084,358.638,456.938,358.845,456.709,358.845"/>
<path fill="#BBBDBE" d="M464.444,353.521h-4.139c-0.229,0-0.395-0.125-0.395-0.354v-0.811c0-0.208,0.166-0.374,0.395-0.374h4.139
	c0.229,0,0.395,0.145,0.395,0.374v0.811C464.839,353.375,464.674,353.521,464.444,353.521"/>
<path fill="#FFFFFF" d="M429.72,348.063c0.646-0.552,1.175-1.189,1.534-1.89c0.358-0.694,0.52-1.382,0.502-2.032
	c-0.016-0.643-0.204-1.246-0.544-1.78c-0.337-0.531-0.82-0.991-1.432-1.353c-0.608-0.361-1.34-0.623-2.18-0.761
	c-0.834-0.138-1.696-0.138-2.547-0.022c-0.847,0.115-1.681,0.347-2.459,0.676c-0.78,0.328-1.507,0.758-2.134,1.265
	c-0.63,0.509-1.162,1.103-1.551,1.759c-0.264,0.446-0.439,0.893-0.542,1.333c3.942,0.218,7.64,1.343,10.896,3.165
	C429.422,348.307,429.574,348.188,429.72,348.063"/>
<path fill="#BBBDBE" d="M418.637,347.713c0.286,0.562,0.731,1.062,1.32,1.467c0.593,0.408,1.329,0.717,2.195,0.89
	c0.869,0.177,1.784,0.199,2.688,0.088c0.907-0.112,1.804-0.358,2.636-0.715c0.644-0.276,1.248-0.622,1.789-1.02
	c-3.258-1.822-6.954-2.947-10.896-3.165c-0.049,0.213-0.089,0.426-0.103,0.633C418.225,346.536,418.353,347.153,418.637,347.713"/>
<path fill="#FFFFFF" d="M416.192,344.799c0.532-0.881,1.252-1.672,2.098-2.354c0.842-0.675,1.811-1.246,2.849-1.682
	c1.037-0.437,2.146-0.745,3.271-0.9c1.129-0.153,2.277-0.153,3.391,0.027c1.118,0.181,2.101,0.532,2.914,1.012
	c0.825,0.485,1.482,1.104,1.941,1.816c0.466,0.722,0.729,1.538,0.761,2.409c0.032,0.885-0.174,1.823-0.651,2.772
	c-0.339,0.672-0.793,1.304-1.335,1.884c0.658,0.463,1.296,0.955,1.906,1.478c0.382-0.505,0.715-1.034,0.984-1.586
	c0.596-1.215,0.844-2.414,0.791-3.541c-0.052-1.108-0.399-2.146-0.997-3.055c-0.589-0.897-1.421-1.677-2.461-2.283
	c-1.026-0.601-2.257-1.035-3.658-1.262c-1.388-0.225-2.819-0.222-4.225-0.029c-1.401,0.192-2.783,0.577-4.075,1.121
	c-1.294,0.545-2.506,1.254-3.562,2.099c-0.989,0.789-1.844,1.703-2.506,2.715c0.763-0.1,1.536-0.169,2.319-0.2
	C416.023,345.094,416.104,344.946,416.192,344.799"/>
<path fill="#BBBDBE" d="M412.28,349.024c-0.116,1.113,0.056,2.188,0.493,3.167c0.443,0.993,1.164,1.887,2.135,2.617
	c0.986,0.739,2.23,1.312,3.703,1.646c1.489,0.337,3.062,0.399,4.63,0.219c1.575-0.18,3.132-0.604,4.579-1.23
	c1.445-0.626,2.771-1.451,3.889-2.436c0.613-0.538,1.158-1.124,1.627-1.745c-0.61-0.521-1.247-1.015-1.906-1.478
	c-0.229,0.243-0.474,0.481-0.732,0.707c-0.88,0.762-1.92,1.404-3.052,1.892c-1.135,0.49-2.354,0.822-3.588,0.969
	c-1.23,0.146-2.47,0.108-3.646-0.145c-1.166-0.248-2.155-0.682-2.946-1.249c-0.781-0.562-1.365-1.254-1.735-2.026
	c-0.365-0.763-0.52-1.604-0.444-2.479c0.062-0.723,0.28-1.469,0.662-2.212c-0.783,0.03-1.557,0.099-2.319,0.199
	c-0.051,0.078-0.103,0.153-0.151,0.232C412.786,346.794,412.395,347.928,412.28,349.024"/>
<path fill="#FFFFFF" d="M413.987,343.004c1.272-1.013,2.728-1.861,4.277-2.512c1.546-0.65,3.198-1.109,4.871-1.343
	c1.68-0.23,3.393-0.234,5.055,0.032c1.684,0.27,3.164,0.791,4.404,1.509c1.259,0.732,2.274,1.669,2.997,2.755
	c0.736,1.105,1.169,2.366,1.25,3.719c0.08,1.378-0.208,2.85-0.918,4.344c-0.234,0.488-0.508,0.962-0.813,1.422
	c0.59,0.612,1.148,1.254,1.676,1.921c0.293-0.473,0.558-0.957,0.788-1.456c0.827-1.786,1.148-3.541,1.034-5.18
	c-0.112-1.604-0.642-3.096-1.523-4.398c-0.863-1.277-2.064-2.376-3.547-3.229c-1.456-0.839-3.188-1.446-5.15-1.757
	c-1.937-0.308-3.929-0.303-5.881-0.031c-1.944,0.269-3.861,0.802-5.66,1.559c-1.803,0.758-3.501,1.745-4.99,2.923
	c-1.25,0.985-2.358,2.114-3.272,3.362c0.856-0.301,1.734-0.555,2.631-0.764C411.982,344.815,412.924,343.85,413.987,343.004"/>
<path fill="#BBBDBE" d="M406.196,352.21c-0.227,1.608-0.052,3.179,0.506,4.62c0.571,1.472,1.539,2.809,2.883,3.917
	c1.371,1.128,3.126,2.013,5.232,2.548c2.137,0.543,4.416,0.672,6.696,0.43c2.294-0.242,4.567-0.854,6.683-1.782
	c2.107-0.922,4.037-2.147,5.655-3.611c1.163-1.051,2.154-2.222,2.934-3.48c-0.526-0.667-1.085-1.309-1.675-1.921
	c-0.644,0.969-1.435,1.873-2.35,2.689c-1.364,1.217-2.986,2.236-4.758,3.007c-1.771,0.772-3.681,1.29-5.607,1.501
	c-1.918,0.214-3.838,0.122-5.647-0.313c-1.786-0.428-3.286-1.148-4.465-2.078c-1.16-0.91-2.007-2.018-2.519-3.246
	c-0.502-1.204-0.681-2.521-0.515-3.881c0.162-1.334,0.659-2.709,1.509-4.061c0.145-0.229,0.298-0.45,0.456-0.669
	c-0.896,0.209-1.774,0.463-2.631,0.764c-0.187,0.254-0.369,0.515-0.539,0.78C407.028,349.01,406.418,350.631,406.196,352.21"/>
<path fill="#00D3DE" d="M111.219,351.629h-6.383v6.8c0,0.229-0.188,0.416-0.416,0.416h-1.062c-0.228,0-0.415-0.187-0.415-0.416
	v-11.313c0-2.765,1.518-3.867,4.429-3.867c1.228,0,3.181,0.042,4.056,0.124c0.125,0.022,0.207,0.168,0.207,0.292v1.04
	c0,0.146-0.082,0.25-0.229,0.25h-4.014c-2.203,0-2.557,0.582-2.557,2.161v2.892h6.383c0.229,0,0.416,0.187,0.416,0.416v0.79
	C111.635,351.44,111.448,351.629,111.219,351.629"/>
<path fill="#00D3DE" d="M116.125,358.845h-1.143c-0.209,0-0.375-0.188-0.375-0.416v-14.64c0-0.208,0.146-0.395,0.375-0.395h1.143
	c0.208,0,0.375,0.166,0.375,0.395v14.64C116.5,358.638,116.354,358.845,116.125,358.845"/>
<path fill="#00D3DE" d="M123.86,353.521h-4.138c-0.229,0-0.396-0.125-0.396-0.354v-0.811c0-0.208,0.166-0.374,0.396-0.374h4.138
	c0.229,0,0.396,0.145,0.396,0.374v0.811C124.256,353.375,124.09,353.521,123.86,353.521"/>
<path fill="#FFFFFF" d="M89.137,348.063c0.645-0.552,1.174-1.189,1.534-1.89c0.358-0.693,0.519-1.382,0.502-2.032
	c-0.017-0.643-0.205-1.246-0.545-1.78c-0.336-0.531-0.821-0.991-1.433-1.353c-0.606-0.361-1.34-0.623-2.179-0.761
	c-0.834-0.139-1.696-0.139-2.547-0.023c-0.847,0.116-1.681,0.348-2.459,0.677c-0.78,0.328-1.506,0.757-2.133,1.266
	c-0.63,0.508-1.163,1.102-1.552,1.758c-0.265,0.446-0.439,0.893-0.541,1.333c3.941,0.218,7.64,1.343,10.896,3.164
	C88.838,348.307,88.99,348.188,89.137,348.063"/>
<path fill="#00D3DE" d="M78.053,347.713c0.287,0.562,0.731,1.062,1.32,1.466c0.594,0.409,1.33,0.718,2.195,0.891
	c0.87,0.177,1.783,0.198,2.688,0.088c0.908-0.112,1.803-0.358,2.635-0.715c0.646-0.276,1.248-0.622,1.789-1.021
	c-3.256-1.821-6.953-2.946-10.896-3.164c-0.049,0.213-0.088,0.425-0.103,0.633C77.641,346.536,77.77,347.153,78.053,347.713"/>
<path fill="#FFFFFF" d="M75.608,344.799c0.533-0.88,1.252-1.673,2.099-2.354c0.84-0.675,1.81-1.246,2.848-1.682
	c1.037-0.438,2.146-0.745,3.271-0.899c1.129-0.154,2.277-0.154,3.389,0.026c1.119,0.182,2.102,0.532,2.916,1.012
	c0.824,0.485,1.481,1.104,1.94,1.816c0.466,0.722,0.729,1.538,0.761,2.409c0.032,0.885-0.174,1.823-0.651,2.771
	c-0.339,0.673-0.793,1.305-1.335,1.885c0.658,0.463,1.296,0.955,1.906,1.478c0.381-0.505,0.715-1.033,0.984-1.586
	c0.596-1.216,0.844-2.415,0.791-3.54c-0.052-1.109-0.398-2.146-0.996-3.056c-0.59-0.897-1.422-1.676-2.462-2.283
	c-1.026-0.601-2.257-1.035-3.657-1.262c-1.389-0.224-2.82-0.222-4.226-0.029c-1.401,0.192-2.783,0.577-4.075,1.121
	c-1.294,0.545-2.506,1.254-3.562,2.099c-0.988,0.789-1.842,1.702-2.504,2.715c0.763-0.1,1.535-0.169,2.318-0.2
	C75.44,345.094,75.521,344.945,75.608,344.799"/>
<path fill="#00D3DE" d="M71.696,349.024c-0.116,1.112,0.056,2.188,0.493,3.166c0.445,0.994,1.164,1.888,2.136,2.618
	c0.985,0.74,2.229,1.312,3.703,1.646c1.487,0.338,3.063,0.399,4.629,0.219c1.575-0.18,3.132-0.604,4.579-1.23
	c1.445-0.626,2.771-1.452,3.889-2.436c0.613-0.538,1.158-1.124,1.627-1.745c-0.611-0.521-1.246-1.015-1.906-1.478
	c-0.229,0.243-0.473,0.482-0.732,0.708c-0.88,0.761-1.92,1.403-3.053,1.891c-1.133,0.49-2.354,0.822-3.588,0.969
	c-1.229,0.147-2.469,0.109-3.646-0.145c-1.166-0.248-2.155-0.682-2.946-1.25c-0.781-0.562-1.365-1.253-1.736-2.025
	c-0.364-0.763-0.518-1.604-0.443-2.479c0.061-0.722,0.28-1.468,0.662-2.211c-0.783,0.03-1.557,0.099-2.318,0.199
	c-0.052,0.078-0.104,0.153-0.152,0.232C72.202,346.793,71.811,347.928,71.696,349.024"/>
<path fill="#FFFFFF" d="M73.404,343.003c1.272-1.012,2.728-1.86,4.276-2.511c1.546-0.651,3.199-1.109,4.871-1.343
	c1.681-0.231,3.394-0.234,5.056,0.032c1.683,0.27,3.164,0.791,4.403,1.509c1.259,0.732,2.274,1.668,2.997,2.754
	c0.736,1.106,1.17,2.368,1.25,3.72c0.08,1.378-0.208,2.85-0.918,4.343c-0.232,0.489-0.508,0.963-0.812,1.423
	c0.588,0.612,1.147,1.254,1.674,1.92c0.293-0.472,0.559-0.957,0.789-1.455c0.828-1.786,1.148-3.541,1.035-5.181
	c-0.113-1.604-0.643-3.095-1.524-4.398c-0.862-1.277-2.063-2.376-3.548-3.229c-1.454-0.839-3.188-1.446-5.149-1.757
	c-1.937-0.308-3.929-0.303-5.881-0.031c-1.942,0.269-3.86,0.802-5.66,1.558c-1.803,0.759-3.501,1.746-4.989,2.922
	c-1.25,0.987-2.359,2.116-3.273,3.364c0.857-0.301,1.734-0.556,2.631-0.763C71.398,344.815,72.34,343.85,73.404,343.003"/>
<path fill="#00D3DE" d="M65.613,352.21c-0.228,1.608-0.053,3.179,0.506,4.62c0.57,1.471,1.539,2.809,2.883,3.917
	c1.369,1.128,3.126,2.013,5.232,2.548c2.137,0.543,4.416,0.672,6.695,0.43c2.294-0.242,4.568-0.854,6.682-1.782
	c2.107-0.922,4.039-2.148,5.655-3.611c1.163-1.051,2.155-2.223,2.935-3.481c-0.525-0.666-1.086-1.308-1.674-1.92
	c-0.644,0.969-1.436,1.873-2.351,2.689c-1.365,1.217-2.985,2.236-4.757,3.007c-1.773,0.772-3.682,1.29-5.608,1.501
	c-1.918,0.214-3.838,0.122-5.647-0.313c-1.786-0.429-3.285-1.148-4.465-2.078c-1.16-0.91-2.008-2.018-2.519-3.246
	c-0.503-1.205-0.68-2.521-0.515-3.88c0.162-1.335,0.66-2.71,1.51-4.062c0.143-0.229,0.296-0.449,0.455-0.667
	c-0.896,0.207-1.773,0.462-2.631,0.763c-0.188,0.254-0.368,0.515-0.538,0.779C66.445,349.01,65.835,350.631,65.613,352.21"/>
<path fill="#002759" d="M283.836,351.629h-6.383v6.8c0,0.229-0.188,0.416-0.416,0.416h-1.062c-0.228,0-0.415-0.187-0.415-0.416
	v-11.313c0-2.765,1.518-3.867,4.429-3.867c1.226,0,3.181,0.042,4.056,0.124c0.125,0.022,0.207,0.168,0.207,0.292v1.04
	c0,0.146-0.082,0.25-0.229,0.25h-4.014c-2.203,0-2.557,0.582-2.557,2.161v2.892h6.383c0.229,0,0.416,0.187,0.416,0.416v0.79
	C284.252,351.44,284.065,351.629,283.836,351.629"/>
<path fill="#002759" d="M288.742,358.845H287.6c-0.209,0-0.375-0.188-0.375-0.416v-14.64c0-0.208,0.146-0.395,0.375-0.395h1.143
	c0.208,0,0.375,0.166,0.375,0.395v14.64C289.117,358.638,288.971,358.845,288.742,358.845"/>
<path fill="#002759" d="M296.478,353.521h-4.138c-0.229,0-0.396-0.125-0.396-0.354v-0.811c0-0.208,0.166-0.374,0.396-0.374h4.138
	c0.229,0,0.396,0.145,0.396,0.374v0.811C296.873,353.375,296.707,353.521,296.478,353.521"/>
<path fill="#FFFFFF" d="M261.754,348.063c0.646-0.552,1.174-1.189,1.535-1.89c0.357-0.693,0.518-1.382,0.5-2.032
	c-0.016-0.643-0.203-1.246-0.543-1.78c-0.338-0.531-0.822-0.991-1.433-1.353c-0.606-0.361-1.341-0.623-2.179-0.761
	c-0.836-0.139-1.697-0.139-2.547-0.023c-0.848,0.116-1.682,0.348-2.459,0.677c-0.78,0.328-1.508,0.757-2.135,1.266
	c-0.63,0.508-1.162,1.102-1.551,1.758c-0.264,0.446-0.439,0.893-0.542,1.333c3.942,0.218,7.642,1.343,10.896,3.164
	C261.455,348.307,261.607,348.188,261.754,348.063"/>
<path fill="#002759" d="M250.67,347.713c0.286,0.562,0.732,1.062,1.32,1.466c0.594,0.409,1.33,0.718,2.195,0.891
	c0.869,0.177,1.784,0.198,2.688,0.088c0.907-0.112,1.803-0.358,2.635-0.715c0.644-0.276,1.248-0.622,1.789-1.021
	c-3.256-1.821-6.954-2.946-10.896-3.164c-0.051,0.213-0.088,0.425-0.104,0.633C250.257,346.536,250.386,347.153,250.67,347.713"/>
<path fill="#FFFFFF" d="M248.227,344.799c0.531-0.88,1.252-1.673,2.097-2.354c0.841-0.675,1.811-1.246,2.849-1.682
	c1.036-0.438,2.146-0.745,3.27-0.899c1.131-0.154,2.279-0.154,3.392,0.026c1.119,0.182,2.101,0.532,2.914,1.012
	c0.826,0.485,1.481,1.104,1.942,1.816c0.466,0.722,0.729,1.538,0.761,2.409c0.032,0.885-0.175,1.823-0.652,2.771
	c-0.339,0.673-0.793,1.305-1.335,1.885c0.659,0.463,1.296,0.955,1.907,1.478c0.38-0.505,0.713-1.033,0.983-1.586
	c0.597-1.216,0.845-2.415,0.791-3.54c-0.053-1.109-0.398-2.146-0.996-3.056c-0.59-0.897-1.422-1.676-2.463-2.283
	c-1.024-0.601-2.256-1.035-3.656-1.262c-1.389-0.224-2.82-0.222-4.225-0.029c-1.402,0.192-2.783,0.577-4.076,1.121
	c-1.295,0.545-2.506,1.254-3.562,2.099c-0.988,0.789-1.842,1.702-2.504,2.715c0.762-0.1,1.536-0.169,2.318-0.2
	C248.059,345.094,248.137,344.945,248.227,344.799"/>
<path fill="#002759" d="M244.313,349.024c-0.116,1.112,0.056,2.188,0.493,3.166c0.445,0.994,1.164,1.888,2.136,2.618
	c0.985,0.74,2.229,1.312,3.703,1.646c1.487,0.338,3.063,0.399,4.63,0.219c1.574-0.18,3.131-0.604,4.579-1.23
	c1.444-0.626,2.771-1.452,3.888-2.436c0.613-0.538,1.158-1.124,1.627-1.745c-0.611-0.521-1.246-1.015-1.906-1.478
	c-0.229,0.243-0.473,0.482-0.732,0.708c-0.88,0.761-1.92,1.403-3.053,1.891c-1.133,0.49-2.354,0.822-3.588,0.969
	c-1.229,0.147-2.469,0.109-3.646-0.145c-1.166-0.248-2.155-0.682-2.946-1.25c-0.781-0.562-1.365-1.253-1.736-2.025
	c-0.364-0.763-0.518-1.604-0.443-2.479c0.061-0.722,0.281-1.468,0.663-2.211c-0.783,0.03-1.558,0.099-2.319,0.199
	c-0.052,0.078-0.104,0.153-0.152,0.232C244.819,346.793,244.428,347.928,244.313,349.024"/>
<path fill="#FFFFFF" d="M246.021,343.003c1.271-1.012,2.727-1.86,4.277-2.511c1.545-0.651,3.197-1.109,4.871-1.343
	c1.68-0.231,3.393-0.234,5.055,0.032c1.682,0.27,3.164,0.791,4.402,1.509c1.261,0.732,2.274,1.668,2.998,2.754
	c0.736,1.106,1.17,2.368,1.25,3.72c0.08,1.378-0.207,2.85-0.918,4.343c-0.233,0.489-0.508,0.963-0.812,1.423
	c0.589,0.612,1.148,1.254,1.674,1.92c0.294-0.472,0.559-0.957,0.789-1.455c0.828-1.786,1.148-3.541,1.035-5.181
	c-0.113-1.604-0.643-3.095-1.523-4.398c-0.863-1.277-2.066-2.376-3.548-3.229c-1.456-0.839-3.188-1.446-5.151-1.757
	c-1.936-0.308-3.929-0.303-5.881-0.031c-1.942,0.269-3.859,0.802-5.66,1.558c-1.803,0.759-3.5,1.746-4.989,2.922
	c-1.249,0.987-2.358,2.116-3.272,3.364c0.856-0.301,1.735-0.556,2.631-0.763C244.017,344.815,244.957,343.85,246.021,343.003"/>
<path fill="#002759" d="M238.23,352.21c-0.229,1.608-0.053,3.179,0.506,4.62c0.57,1.471,1.538,2.809,2.882,3.917
	c1.371,1.128,3.126,2.013,5.233,2.548c2.137,0.543,4.415,0.672,6.695,0.43c2.293-0.242,4.567-0.854,6.683-1.782
	c2.106-0.922,4.038-2.148,5.655-3.611c1.162-1.051,2.154-2.223,2.934-3.481c-0.525-0.666-1.085-1.308-1.674-1.92
	c-0.645,0.969-1.436,1.873-2.352,2.689c-1.363,1.217-2.985,2.236-4.756,3.007c-1.772,0.772-3.682,1.29-5.607,1.501
	c-1.918,0.214-3.84,0.122-5.648-0.313c-1.785-0.429-3.285-1.148-4.465-2.078c-1.16-0.91-2.007-2.018-2.518-3.246
	c-0.504-1.205-0.681-2.521-0.516-3.88c0.163-1.335,0.659-2.71,1.51-4.062c0.144-0.229,0.297-0.449,0.455-0.667
	c-0.896,0.207-1.774,0.462-2.631,0.763c-0.187,0.254-0.369,0.515-0.537,0.779C239.062,349.01,238.453,350.631,238.23,352.21"/>
<path fill="#002759" d="M342.557,121.165h-18.861v20.091c0,0.677-0.553,1.229-1.229,1.229h-3.135c-0.675,0-1.228-0.552-1.228-1.229
	v-33.424c0-8.172,4.483-11.428,13.087-11.428c3.624,0,9.4,0.123,11.98,0.368c0.368,0.063,0.614,0.493,0.614,0.861v3.072
	c0,0.431-0.246,0.737-0.676,0.737h-11.858c-6.512,0-7.557,1.721-7.557,6.39v8.54h18.861c0.677,0,1.229,0.554,1.229,1.23v2.334
	C343.786,120.611,343.233,121.165,342.557,121.165"/>
<path fill="#002759" d="M357.053,142.485h-3.379c-0.614,0-1.104-0.553-1.104-1.229V98.002c0-0.615,0.429-1.167,1.104-1.167h3.379
	c0.615,0,1.105,0.491,1.105,1.167v43.254C358.158,141.872,357.729,142.485,357.053,142.485"/>
<path fill="#002759" d="M379.908,126.756h-12.227c-0.677,0-1.168-0.368-1.168-1.044v-2.397c0-0.615,0.491-1.106,1.168-1.106h12.227
	c0.676,0,1.167,0.43,1.167,1.106v2.397C381.075,126.326,380.584,126.756,379.908,126.756"/>
<g>
	<path fill="#00D3DE" d="M413.729,142.302c-1.588,0.244-6.167,0.55-11.907,0.55c-6.534,0-13.008-1.282-13.008-11.358V98.274
		c0-0.672,0.55-1.221,1.222-1.221h3.114c0.672,0,1.222,0.549,1.222,1.221v33.219c0,4.642,1.038,6.352,7.511,6.352h11.786
		c0.427,0,0.671,0.305,0.671,0.732v2.87C414.339,141.813,414.095,142.241,413.729,142.302z"/>
	<path fill="#00D3DE" d="M464.55,108.504L464.55,108.504l-0.021-0.001c-0.251-0.009-0.493-0.029-0.752-0.029
		c-0.434,0-0.917,0.011-1.425,0.029h-5.72V97.726c0-0.671-0.55-1.16-1.16-1.16h-3.114c-0.672,0-1.1,0.55-1.1,1.16v10.777h-19.618
		c-0.485-0.019-0.963-0.029-1.43-0.029c-9.159,0-13.312,5.924-13.312,15.084v4.273c0,9.16,4.213,15.084,13.312,15.084
		c3.726,0,8-0.611,11.236-1.404c1.1-0.244,1.282-0.611,1.282-1.404v-26.479c2.794,0,5.735,0,8.529,0v26.844
		c0,0.855,0.184,1.222,1.282,1.404c3.786,0.733,7.572,1.039,11.236,1.039c9.16,0,13.312-5.924,13.312-15.084v-4.396
		C477.09,114.136,472.883,108.815,464.55,108.504z M437.356,137.785c-1.71,0.306-4.58,0.61-7.146,0.61
		c-6.045,0-7.938-4.152-7.938-10.564v-4.273c0-2.373,0.258-4.422,0.878-6.07c1.005-2.054,2.594-3.859,6.274-3.859
		c0.523,0,3.696,0,7.932,0V137.785z M471.716,127.831c0,6.656-1.893,10.382-7.938,10.382c-2.076,0-5.068-0.184-7.145-0.366v-24.219
		c4.204,0,7.362,0,7.917,0c1.875,0,4.875,0.125,6.625,5.25c0.067,0.197,0.136,0.374,0.205,0.541
		c0.228,1.188,0.336,2.524,0.336,4.016V127.831z"/>
</g>
<g>
	<path fill="#FFFFFF" d="M135.437,358.832c-0.543,0.083-2.107,0.188-4.068,0.188c-2.233,0-4.444-0.438-4.444-3.88v-11.349
		c0-0.23,0.188-0.418,0.418-0.418h1.063c0.229,0,0.418,0.188,0.418,0.418v11.349c0,1.584,0.354,2.169,2.565,2.169h4.026
		c0.146,0,0.229,0.105,0.229,0.251v0.98C135.645,358.666,135.561,358.812,135.437,358.832z"/>
	<path fill="#FFFFFF" d="M152.8,347.284L152.8,347.284h-0.008c-0.086-0.002-0.168-0.01-0.257-0.01c-0.148,0-0.312,0.004-0.486,0.01
		h-1.954v-3.682c0-0.229-0.188-0.396-0.397-0.396h-1.063c-0.229,0-0.375,0.188-0.375,0.396v3.682h-6.703
		c-0.165-0.006-0.329-0.01-0.488-0.01c-3.13,0-4.548,2.023-4.548,5.152v1.461c0,3.13,1.438,5.153,4.548,5.153
		c1.272,0,2.733-0.209,3.839-0.479c0.376-0.084,0.438-0.209,0.438-0.48v-9.046c0.954,0,1.96,0,2.914,0v9.172
		c0,0.291,0.062,0.419,0.438,0.479c1.294,0.251,2.587,0.354,3.839,0.354c3.13,0,4.549-2.023,4.549-5.153v-1.503
		C157.084,349.21,155.646,347.391,152.8,347.284z M143.51,357.289c-0.585,0.104-1.565,0.207-2.442,0.207
		c-2.064,0-2.711-1.417-2.711-3.608v-1.461c0-0.81,0.086-1.51,0.3-2.072c0.342-0.702,0.885-1.319,2.143-1.319
		c0.178,0,1.264,0,2.711,0V357.289z M155.248,353.888c0,2.275-0.647,3.547-2.713,3.547c-0.709,0-1.73-0.062-2.44-0.124v-8.275
		c1.436,0,2.515,0,2.705,0c0.641,0,1.665,0.043,2.264,1.794c0.022,0.067,0.045,0.128,0.069,0.185
		c0.078,0.406,0.115,0.861,0.115,1.371V353.888z"/>
</g>
<g>
	<path fill="#FFFFFF" d="M308.004,358.832c-0.543,0.083-2.107,0.188-4.068,0.188c-2.232,0-4.443-0.438-4.443-3.88v-11.349
		c0-0.23,0.188-0.418,0.418-0.418h1.062c0.23,0,0.418,0.188,0.418,0.418v11.349c0,1.584,0.355,2.169,2.566,2.169h4.025
		c0.146,0,0.23,0.105,0.23,0.251v0.98C308.213,358.666,308.129,358.812,308.004,358.832z"/>
	<path fill="#FFFFFF" d="M325.367,347.284L325.367,347.284h-0.008c-0.086-0.002-0.168-0.01-0.256-0.01
		c-0.148,0-0.312,0.004-0.486,0.01h-1.955v-3.682c0-0.229-0.188-0.396-0.396-0.396h-1.064c-0.229,0-0.375,0.188-0.375,0.396v3.682
		h-6.703c-0.164-0.006-0.328-0.01-0.488-0.01c-3.129,0-4.547,2.023-4.547,5.152v1.461c0,3.13,1.438,5.153,4.547,5.153
		c1.273,0,2.734-0.209,3.84-0.479c0.375-0.084,0.438-0.209,0.438-0.48v-9.046c0.955,0,1.961,0,2.914,0v9.172
		c0,0.291,0.062,0.419,0.438,0.479c1.295,0.251,2.588,0.354,3.84,0.354c3.129,0,4.549-2.023,4.549-5.153v-1.503
		C329.652,349.21,328.213,347.391,325.367,347.284z M316.078,357.289c-0.586,0.104-1.566,0.207-2.443,0.207
		c-2.064,0-2.711-1.417-2.711-3.608v-1.461c0-0.81,0.086-1.51,0.301-2.072c0.342-0.702,0.885-1.319,2.143-1.319
		c0.178,0,1.264,0,2.711,0V357.289z M327.816,353.888c0,2.275-0.648,3.547-2.713,3.547c-0.709,0-1.73-0.062-2.441-0.124v-8.275
		c1.436,0,2.516,0,2.705,0c0.641,0,1.666,0.043,2.264,1.794c0.023,0.067,0.045,0.128,0.07,0.185
		c0.078,0.406,0.115,0.861,0.115,1.371V353.888z"/>
</g>
<g>
	<path fill="#FFFFFF" d="M475.971,358.832c-0.543,0.083-2.107,0.188-4.068,0.188c-2.232,0-4.443-0.438-4.443-3.88v-11.349
		c0-0.23,0.188-0.418,0.418-0.418h1.062c0.23,0,0.418,0.188,0.418,0.418v11.349c0,1.584,0.355,2.169,2.566,2.169h4.025
		c0.146,0,0.23,0.105,0.23,0.251v0.98C476.18,358.666,476.096,358.812,475.971,358.832z"/>
	<path fill="#FFFFFF" d="M493.334,347.284L493.334,347.284h-0.008c-0.086-0.002-0.168-0.01-0.256-0.01
		c-0.148,0-0.312,0.004-0.486,0.01h-1.955v-3.682c0-0.229-0.188-0.396-0.396-0.396h-1.064c-0.229,0-0.375,0.188-0.375,0.396v3.682
		h-6.703c-0.164-0.006-0.328-0.01-0.488-0.01c-3.129,0-4.547,2.023-4.547,5.152v1.461c0,3.13,1.438,5.153,4.547,5.153
		c1.273,0,2.734-0.209,3.84-0.479c0.375-0.084,0.438-0.209,0.438-0.48v-9.046c0.955,0,1.961,0,2.914,0v9.172
		c0,0.291,0.062,0.419,0.438,0.479c1.295,0.251,2.588,0.354,3.84,0.354c3.129,0,4.549-2.023,4.549-5.153v-1.503
		C497.619,349.21,496.18,347.391,493.334,347.284z M484.045,357.289c-0.586,0.104-1.566,0.207-2.443,0.207
		c-2.064,0-2.711-1.417-2.711-3.608v-1.461c0-0.81,0.086-1.51,0.301-2.072c0.342-0.702,0.885-1.319,2.143-1.319
		c0.178,0,1.264,0,2.711,0V357.289z M495.783,353.888c0,2.275-0.648,3.547-2.713,3.547c-0.709,0-1.73-0.062-2.441-0.124v-8.275
		c1.436,0,2.516,0,2.705,0c0.641,0,1.666,0.043,2.264,1.794c0.023,0.067,0.045,0.128,0.07,0.185
		c0.078,0.406,0.115,0.861,0.115,1.371V353.888z"/>
</g>
<g>
	<path fill="#BBBDBE" d="M647.477,358.832c-0.543,0.083-2.107,0.188-4.068,0.188c-2.232,0-4.443-0.438-4.443-3.88v-11.349
		c0-0.23,0.188-0.418,0.418-0.418h1.062c0.23,0,0.418,0.188,0.418,0.418v11.349c0,1.584,0.355,2.169,2.566,2.169h4.025
		c0.146,0,0.23,0.105,0.23,0.251v0.98C647.686,358.666,647.602,358.812,647.477,358.832z"/>
	<path fill="#BBBDBE" d="M664.84,347.284L664.84,347.284h-0.008c-0.086-0.002-0.168-0.01-0.256-0.01
		c-0.148,0-0.312,0.004-0.486,0.01h-1.955v-3.682c0-0.229-0.188-0.396-0.396-0.396h-1.064c-0.229,0-0.375,0.188-0.375,0.396v3.682
		h-6.703c-0.164-0.006-0.328-0.01-0.488-0.01c-3.129,0-4.547,2.023-4.547,5.152v1.461c0,3.13,1.438,5.153,4.547,5.153
		c1.273,0,2.734-0.209,3.84-0.479c0.375-0.084,0.438-0.209,0.438-0.48v-9.046c0.955,0,1.961,0,2.914,0v9.172
		c0,0.291,0.062,0.419,0.438,0.479c1.295,0.251,2.588,0.354,3.84,0.354c3.129,0,4.549-2.023,4.549-5.153v-1.503
		C669.125,349.21,667.686,347.391,664.84,347.284z M655.551,357.289c-0.586,0.104-1.566,0.207-2.443,0.207
		c-2.064,0-2.711-1.417-2.711-3.608v-1.461c0-0.81,0.086-1.51,0.301-2.072c0.342-0.702,0.885-1.319,2.143-1.319
		c0.178,0,1.264,0,2.711,0V357.289z M667.289,353.888c0,2.275-0.648,3.547-2.713,3.547c-0.709,0-1.73-0.062-2.441-0.124v-8.275
		c1.436,0,2.516,0,2.705,0c0.641,0,1.666,0.043,2.264,1.794c0.023,0.067,0.045,0.128,0.07,0.185
		c0.078,0.406,0.115,0.861,0.115,1.371V353.888z"/>
</g>
</svg>
