<?xml version="1.0" encoding="utf-8"?>
<!-- Generator: Adobe Illustrator 16.0.0, SVG Export Plug-In . SVG Version: 6.00 Build 0)  -->
<!DOCTYPE svg PUBLIC "-//W3C//DTD SVG 1.1//EN" "http://www.w3.org/Graphics/SVG/1.1/DTD/svg11.dtd">
<svg version="1.1" id="Capa_1" xmlns="http://www.w3.org/2000/svg" xmlns:xlink="http://www.w3.org/1999/xlink" x="0px" y="0px"
	 width="756px" height="453px" viewBox="0 0 756 453" enable-background="new 0 0 756 453" xml:space="preserve">
<path fill="#002759" d="M342.667,121.165h-18.862v20.091c0,0.677-0.553,1.229-1.229,1.229h-3.134c-0.675,0-1.228-0.552-1.228-1.229
	v-33.424c0-8.172,4.484-11.428,13.087-11.428c3.624,0,9.4,0.123,11.98,0.368c0.369,0.063,0.615,0.493,0.615,0.861v3.072
	c0,0.431-0.246,0.737-0.676,0.737h-11.858c-6.512,0-7.557,1.721-7.557,6.39v8.54h18.862c0.676,0,1.229,0.554,1.229,1.23v2.334
	C343.896,120.611,343.344,121.165,342.667,121.165"/>
<path fill="#002759" d="M357.164,142.485h-3.379c-0.615,0-1.105-0.553-1.105-1.229V98.002c0-0.615,0.429-1.167,1.105-1.167h3.379
	c0.615,0,1.105,0.491,1.105,1.167v43.254C358.269,141.872,357.84,142.485,357.164,142.485"/>
<path fill="#002759" d="M380.019,126.756h-12.227c-0.677,0-1.168-0.368-1.168-1.044v-2.397c0-0.615,0.491-1.106,1.168-1.106h12.227
	c0.676,0,1.167,0.43,1.167,1.106v2.397C381.186,126.326,380.694,126.756,380.019,126.756"/>
<path fill="#00D3DE" d="M421.182,142.915c-3.195,0-6.146-0.307-9.646-1.536c-3.502,1.229-6.391,1.536-9.585,1.536
	c-9.339,0-13.026-6.083-13.026-16.773v-28.14c0-0.614,0.491-1.167,1.167-1.167h3.258c0.613,0,1.167,0.553,1.167,1.167v28.14
	c0,8.294,1.658,12.043,8.602,12.043c1.044,0,4.3-0.185,5.652-0.554V98.002c0-0.614,0.492-1.167,1.168-1.167h3.317
	c0.677,0,1.106,0.43,1.106,1.105v39.691c1.351,0.369,4.607,0.554,5.652,0.554c6.942,0,8.602-3.749,8.602-12.043v-28.14
	c0-0.614,0.492-1.167,1.168-1.167h3.255c0.615,0,1.168,0.553,1.168,1.167v28.14C434.206,136.832,430.521,142.915,421.182,142.915"/>
<path fill="#00D3DE" d="M468.178,109.124c0-6.39-2.029-7.804-7.62-7.804h-3.562c-5.593,0-7.619,1.414-7.619,7.804v9.031h18.802
	V109.124z M472.662,142.485h-3.38c-0.613,0-1.104-0.553-1.104-1.229v-18.187h-18.802v18.187c0,0.615-0.431,1.229-1.106,1.229h-3.379
	c-0.615,0-1.105-0.614-1.105-1.229v-32.133c0-9.402,4.361-12.719,13.21-12.719h3.562c8.787,0,13.209,3.317,13.209,12.719v32.133
	C473.767,141.872,473.276,142.485,472.662,142.485"/>
<path fill="#00D3DE" d="M507.311,109.614c0-6.144-3.994-8.172-11.674-8.172c-1.904,0-5.283,0-6.759,0.185v16.835
	c2.703,0.061,5.345,0.122,6.759,0.122c7.558,0,11.674-1.905,11.674-8.54V109.614z M513.762,142.485h-3.934
	c-0.736,0-1.104,0-1.596-0.799l-10.998-18.31h-0.553h-1.045c-2.027,0-3.502-0.062-6.759-0.184v18.064
	c0,0.615-0.43,1.229-1.106,1.229h-3.317c-0.614,0-1.105-0.553-1.105-1.229V98.248c0-0.86,0.368-1.229,1.474-1.352
	c2.643-0.306,7.25-0.491,10.814-0.491c9.708,0,17.204,3.256,17.204,13.21v0.43c0,6.881-4.057,10.936-9.646,12.411l11.181,18.678
	c0.123,0.184,0.186,0.369,0.186,0.553C514.561,142.116,514.253,142.485,513.762,142.485"/>
<path fill="#00D3DE" d="M546.812,142.608c-2.334,0.245-8.355,0.307-11.98,0.307c-8.602,0-13.086-3.256-13.086-11.429v-23.654
	c0-8.172,4.484-11.428,13.086-11.428c3.625,0,9.4,0.123,11.98,0.368c0.368,0.063,0.614,0.492,0.614,0.86v3.073
	c0,0.43-0.246,0.737-0.676,0.737h-11.858c-6.513,0-7.558,1.721-7.558,6.39v8.54h18.863c0.677,0,1.229,0.553,1.229,1.229v2.334
	c0,0.676-0.552,1.23-1.229,1.23h-18.863v10.321c0,4.67,1.045,6.391,7.558,6.391h11.858c0.43,0,0.676,0.307,0.676,0.737v3.134
	C547.427,142.117,547.181,142.546,546.812,142.608"/>
<path fill="#00D3DE" d="M271.789,88.066c2.392,0.394,4.48,1.142,6.214,2.167c1.744,1.036,3.125,2.348,4.085,3.86
	c0.971,1.523,1.508,3.246,1.554,5.081c0.045,1.851-0.412,3.817-1.432,5.793c-1.029,1.997-2.534,3.817-4.377,5.392
	c-1.849,1.582-4.03,2.916-6.402,3.932c-2.375,1.018-4.927,1.719-7.517,2.038c-2.579,0.318-5.186,0.257-7.666-0.246
	c-2.468-0.496-4.571-1.377-6.263-2.541c-1.679-1.151-2.948-2.582-3.766-4.186c-0.811-1.589-1.175-3.353-1.055-5.193
	c0.119-1.822,0.717-3.724,1.836-5.609c1.109-1.875,2.627-3.565,4.426-5.017c1.789-1.449,3.859-2.669,6.084-3.608
	c2.22-0.937,4.599-1.595,7.015-1.926C266.947,87.673,269.409,87.673,271.789,88.066"/>
<path fill="#00D3DE" d="M251.283,125.033c3.356,0.717,6.891,0.828,10.399,0.41c3.52-0.418,7-1.368,10.233-2.763
	c3.228-1.391,6.194-3.222,8.706-5.397c2.492-2.165,4.522-4.657,5.896-7.392c1.361-2.705,1.95-5.382,1.858-7.904
	c-0.088-2.487-0.843-4.818-2.168-6.875c-1.313-2.032-3.185-3.795-5.537-5.18c-2.322-1.367-5.122-2.364-8.316-2.885
	c-3.172-0.517-6.449-0.517-9.668-0.075c-3.209,0.442-6.373,1.32-9.33,2.567c-2.96,1.245-5.725,2.868-8.123,4.798
	c-2.414,1.938-4.466,4.199-5.985,6.713c-1.533,2.535-2.379,5.097-2.588,7.565c-0.212,2.495,0.228,4.898,1.268,7.073
	c1.054,2.202,2.722,4.174,4.953,5.779C245.135,123.084,247.957,124.322,251.283,125.033 M272.915,86.034
	c3.995,0.644,7.505,1.891,10.433,3.6c2.964,1.733,5.342,3.948,7.02,6.509c1.705,2.597,2.693,5.554,2.843,8.718
	c0.151,3.21-0.56,6.631-2.255,10.096c-1.723,3.513-4.283,6.722-7.449,9.503c-3.189,2.804-6.972,5.159-11.091,6.944
	c-4.128,1.79-8.57,2.997-13.06,3.515c-4.47,0.51-8.96,0.336-13.208-0.627c-4.203-0.951-7.748-2.581-10.558-4.693
	c-2.774-2.085-4.825-4.633-6.094-7.467c-1.248-2.792-1.738-5.86-1.406-9.034c0.324-3.128,1.442-6.363,3.412-9.557
	c1.945-3.154,4.542-5.985,7.578-8.407c3.012-2.409,6.469-4.432,10.161-5.986c3.686-1.553,7.626-2.648,11.623-3.198
	C264.872,85.399,268.955,85.396,272.915,86.034"/>
<path fill="#00D3DE" d="M295.525,120.182c-2.063,4.331-5.168,8.292-9.022,11.729c-3.89,3.471-8.518,6.377-13.565,8.577
	c-5.058,2.204-10.501,3.68-15.997,4.282c-5.469,0.607-10.947,0.345-16.11-0.896c-5.093-1.223-9.37-3.277-12.732-5.924
	c-3.309-2.6-5.727-5.761-7.185-9.264c-1.431-3.433-1.94-7.19-1.467-11.064c0.465-3.806,1.881-7.729,4.305-11.589
	c2.39-3.801,5.546-7.199,9.206-10.107c3.631-2.885,7.781-5.306,12.201-7.162c4.411-1.857,9.122-3.167,13.892-3.828
	c4.794-0.661,9.68-0.671,14.421,0.089c4.799,0.766,9.024,2.256,12.56,4.31c3.591,2.083,6.485,4.756,8.549,7.851
	c2.098,3.153,3.336,6.749,3.565,10.609C298.372,111.724,297.554,115.922,295.525,120.182 M303.184,110.789
	c-0.318-4.572-1.831-8.829-4.345-12.546c-2.461-3.642-5.887-6.774-10.117-9.212c-4.151-2.391-9.094-4.121-14.69-5.011
	c-5.524-0.877-11.205-0.86-16.775-0.087c-5.541,0.769-11.012,2.291-16.143,4.447c-5.143,2.16-9.984,4.976-14.234,8.332
	c-4.295,3.391-8.02,7.364-10.87,11.816c-2.901,4.531-4.639,9.154-5.272,13.654c-0.649,4.593-0.147,9.069,1.443,13.178
	c1.627,4.2,4.391,8.016,8.223,11.172c3.908,3.221,8.914,5.743,14.922,7.271c6.097,1.547,12.595,1.915,19.099,1.227
	c6.543-0.689,13.03-2.437,19.06-5.08c6.011-2.635,11.515-6.131,16.13-10.307c4.564-4.125,8.218-8.885,10.621-14.077
	C302.595,120.472,303.51,115.467,303.184,110.789"/>
<path fill="#002759" d="M245.164,104.163c-0.12,1.84,0.244,3.605,1.055,5.193c0.818,1.604,2.087,3.036,3.766,4.186
	c1.692,1.164,3.795,2.045,6.263,2.541c2.48,0.503,5.087,0.564,7.666,0.246c2.59-0.318,5.142-1.019,7.517-2.038
	c2.117-0.906,4.081-2.068,5.793-3.433c-9.497-5.179-20.237-8.361-31.659-8.991C245.349,102.643,245.213,103.409,245.164,104.163"/>
<path fill="#002759" d="M280.621,117.283c-2.512,2.175-5.479,4.006-8.706,5.397c-3.234,1.395-6.713,2.345-10.234,2.763
	c-3.507,0.418-7.042,0.307-10.398-0.41c-3.326-0.711-6.148-1.949-8.402-3.566c-2.231-1.605-3.899-3.577-4.953-5.779
	c-1.04-2.176-1.48-4.578-1.268-7.073c0.19-2.228,0.9-4.528,2.162-6.819c-2.193,0.074-4.363,0.241-6.504,0.498
	c-0.283,0.41-0.556,0.825-0.816,1.247c-1.97,3.194-3.088,6.429-3.412,9.557c-0.332,3.174,0.158,6.242,1.406,9.034
	c1.269,2.834,3.32,5.382,6.094,7.467c2.81,2.112,6.355,3.742,10.558,4.693c4.247,0.963,8.738,1.137,13.208,0.627
	c4.49-0.518,8.932-1.725,13.06-3.515c4.119-1.785,7.902-4.14,11.091-6.944c2.024-1.78,3.799-3.734,5.266-5.83
	c-1.749-1.429-3.563-2.782-5.439-4.052C282.509,115.526,281.602,116.431,280.621,117.283"/>
<path fill="#002759" d="M293.881,123.204c-1.939,3.162-4.44,6.087-7.377,8.707c-3.891,3.471-8.519,6.377-13.565,8.577
	c-5.058,2.204-10.501,3.68-15.998,4.282c-5.468,0.607-10.947,0.345-16.109-0.896c-5.094-1.223-9.37-3.277-12.732-5.924
	c-3.309-2.6-5.727-5.761-7.185-9.264c-1.432-3.433-1.94-7.19-1.468-11.064c0.465-3.806,1.881-7.729,4.306-11.589
	c0.562-0.892,1.169-1.762,1.812-2.609c-2.497,0.535-4.946,1.195-7.343,1.972c-0.784,1.016-1.525,2.061-2.211,3.132
	c-2.902,4.53-4.64,9.154-5.273,13.654c-0.648,4.593-0.146,9.069,1.444,13.178c1.627,4.199,4.39,8.016,8.222,11.172
	c3.909,3.221,8.914,5.743,14.922,7.271c6.098,1.547,12.596,1.915,19.1,1.227c6.543-0.689,13.029-2.437,19.059-5.08
	c6.011-2.635,11.516-6.131,16.13-10.307c3.703-3.348,6.809-7.113,9.133-11.188C297.208,126.628,295.583,124.875,293.881,123.204"/>
<line opacity="0.2" fill="none" stroke="#002E67" stroke-width="0.25" stroke-miterlimit="10" x1="0.52" y1="278.819" x2="757.369" y2="278.819"/>
<rect x="39.945" y="292.48" fill="#002759" width="166" height="118"/>
<rect x="380.945" y="292.48" width="166" height="118"/>
<rect x="211.945" y="292.48" fill="#00D3DE" width="165" height="118"/>
<rect x="551.945" y="292.48" fill="#ECEDED" width="166" height="118"/>
<path fill="#707172" d="M623.419,351.629h-6.384v6.8c0,0.229-0.187,0.416-0.416,0.416h-1.061c-0.229,0-0.416-0.187-0.416-0.416
	v-11.312c0-2.766,1.518-3.868,4.43-3.868c1.227,0,3.181,0.042,4.055,0.125c0.125,0.021,0.208,0.167,0.208,0.291v1.04
	c0,0.146-0.083,0.25-0.229,0.25h-4.014c-2.203,0-2.558,0.582-2.558,2.162v2.89h6.384c0.229,0,0.416,0.188,0.416,0.417v0.79
	C623.835,351.44,623.648,351.629,623.419,351.629"/>
<path fill="#707172" d="M628.325,358.845h-1.144c-0.209,0-0.374-0.188-0.374-0.416v-14.64c0-0.207,0.146-0.395,0.374-0.395h1.144
	c0.208,0,0.375,0.166,0.375,0.395v14.64C628.7,358.638,628.554,358.845,628.325,358.845"/>
<path fill="#707172" d="M636.061,353.521h-4.138c-0.229,0-0.395-0.125-0.395-0.354v-0.811c0-0.208,0.166-0.374,0.395-0.374h4.138
	c0.229,0,0.396,0.145,0.396,0.374v0.811C636.456,353.375,636.289,353.521,636.061,353.521"/>
<path fill="#BBBDBE" d="M649.992,358.99c-1.081,0-2.08-0.104-3.264-0.521c-1.187,0.416-2.163,0.521-3.245,0.521
	c-3.16,0-4.408-2.06-4.408-5.677v-9.524c0-0.207,0.166-0.395,0.395-0.395h1.103c0.209,0,0.395,0.188,0.395,0.395v9.524
	c0,2.807,0.562,4.074,2.911,4.074c0.354,0,1.456-0.062,1.913-0.186v-13.413c0-0.207,0.167-0.395,0.396-0.395h1.124
	c0.228,0,0.373,0.146,0.373,0.375v13.433c0.458,0.124,1.56,0.186,1.912,0.186c2.352,0,2.912-1.268,2.912-4.074v-9.524
	c0-0.207,0.167-0.395,0.396-0.395h1.102c0.208,0,0.396,0.188,0.396,0.395v9.524C654.4,356.931,653.153,358.99,649.992,358.99"/>
<path fill="#BBBDBE" d="M665.898,347.554c0-2.163-0.687-2.643-2.578-2.643h-1.206c-1.894,0-2.58,0.479-2.58,2.643v3.056h6.364
	V347.554z M667.416,358.845h-1.143c-0.209,0-0.375-0.188-0.375-0.416v-6.156h-6.364v6.156c0,0.209-0.146,0.416-0.373,0.416h-1.145
	c-0.208,0-0.374-0.207-0.374-0.416v-10.875c0-3.184,1.477-4.306,4.472-4.306h1.206c2.973,0,4.47,1.122,4.47,4.306v10.875
	C667.79,358.638,667.624,358.845,667.416,358.845"/>
<path fill="#BBBDBE" d="M679.143,347.72c0-2.079-1.352-2.767-3.95-2.767c-0.646,0-1.789,0-2.288,0.062v5.698
	c0.915,0.021,1.809,0.041,2.288,0.041c2.557,0,3.95-0.645,3.95-2.89V347.72z M681.326,358.845h-1.331c-0.25,0-0.374,0-0.541-0.271
	l-3.722-6.196h-0.188h-0.353c-0.688,0-1.187-0.021-2.288-0.062v6.113c0,0.209-0.146,0.416-0.374,0.416h-1.123
	c-0.208,0-0.374-0.188-0.374-0.416v-14.557c0-0.29,0.124-0.416,0.499-0.457c0.894-0.104,2.453-0.167,3.66-0.167
	c3.284,0,5.821,1.103,5.821,4.472v0.146c0,2.329-1.371,3.701-3.265,4.2l3.785,6.321c0.042,0.062,0.062,0.125,0.062,0.187
	C681.597,358.72,681.493,358.845,681.326,358.845"/>
<path fill="#BBBDBE" d="M692.512,358.886c-0.789,0.083-2.827,0.104-4.055,0.104c-2.911,0-4.428-1.101-4.428-3.867v-8.007
	c0-2.765,1.517-3.867,4.428-3.867c1.228,0,3.182,0.042,4.055,0.125c0.125,0.021,0.208,0.167,0.208,0.291v1.039
	c0,0.146-0.083,0.25-0.229,0.25h-4.013c-2.204,0-2.559,0.582-2.559,2.162v2.891h6.385c0.229,0,0.415,0.188,0.415,0.417v0.79
	c0,0.229-0.187,0.416-0.415,0.416h-6.385v3.493c0,1.579,0.354,2.162,2.559,2.162h4.013c0.146,0,0.229,0.104,0.229,0.249v1.062
	C692.72,358.72,692.637,358.864,692.512,358.886"/>
<path fill="#BBBDBE" d="M601.336,348.314c0.646-0.552,1.175-1.189,1.535-1.891c0.358-0.693,0.519-1.381,0.501-2.03
	c-0.015-0.644-0.204-1.247-0.544-1.781c-0.337-0.53-0.82-0.99-1.432-1.353c-0.607-0.361-1.34-0.622-2.179-0.761
	c-0.835-0.138-1.697-0.138-2.548-0.022c-0.847,0.116-1.681,0.348-2.459,0.676c-0.779,0.329-1.506,0.758-2.134,1.265
	c-0.63,0.509-1.162,1.103-1.551,1.759c-0.264,0.446-0.438,0.893-0.542,1.332c3.942,0.219,7.64,1.344,10.896,3.165
	C601.038,348.559,601.19,348.439,601.336,348.314"/>
<path fill="#707172" d="M590.253,347.964c0.287,0.562,0.732,1.062,1.32,1.468c0.593,0.407,1.33,0.716,2.195,0.889
	c0.869,0.178,1.784,0.199,2.688,0.087c0.907-0.111,1.803-0.356,2.635-0.714c0.645-0.275,1.248-0.622,1.789-1.02
	c-3.256-1.822-6.954-2.947-10.896-3.165c-0.051,0.213-0.089,0.426-0.104,0.634C589.84,346.788,589.969,347.404,590.253,347.964"/>
<path fill="#BBBDBE" d="M587.809,345.051c0.532-0.881,1.252-1.673,2.098-2.354c0.842-0.675,1.811-1.245,2.849-1.682
	c1.036-0.437,2.146-0.745,3.271-0.9c1.13-0.153,2.277-0.153,3.39,0.027c1.12,0.182,2.102,0.533,2.915,1.012
	c0.825,0.485,1.482,1.104,1.942,1.816c0.465,0.722,0.729,1.538,0.761,2.409c0.032,0.885-0.174,1.823-0.652,2.772
	c-0.339,0.672-0.793,1.305-1.335,1.884c0.659,0.463,1.295,0.955,1.907,1.478c0.38-0.505,0.714-1.034,0.984-1.585
	c0.596-1.216,0.844-2.415,0.791-3.541c-0.054-1.108-0.399-2.146-0.997-3.056c-0.589-0.897-1.423-1.677-2.462-2.283
	c-1.025-0.601-2.257-1.034-3.657-1.262c-1.389-0.224-2.82-0.222-4.226-0.029c-1.4,0.192-2.782,0.577-4.074,1.121
	c-1.295,0.546-2.507,1.254-3.563,2.099c-0.988,0.789-1.842,1.703-2.504,2.716c0.762-0.101,1.536-0.17,2.319-0.199
	C587.64,345.345,587.72,345.197,587.809,345.051"/>
<path fill="#707172" d="M583.896,349.275c-0.116,1.113,0.056,2.188,0.493,3.167c0.444,0.993,1.164,1.887,2.136,2.618
	c0.985,0.74,2.229,1.311,3.702,1.645c1.489,0.337,3.063,0.399,4.631,0.221c1.574-0.182,3.132-0.604,4.578-1.232
	c1.444-0.626,2.772-1.451,3.889-2.436c0.614-0.538,1.158-1.122,1.628-1.745c-0.612-0.521-1.247-1.015-1.907-1.478
	c-0.229,0.244-0.473,0.481-0.731,0.707c-0.882,0.762-1.922,1.404-3.053,1.893c-1.134,0.49-2.354,0.821-3.588,0.968
	c-1.229,0.146-2.47,0.109-3.646-0.144c-1.166-0.248-2.155-0.683-2.946-1.25c-0.782-0.562-1.366-1.254-1.736-2.025
	c-0.365-0.764-0.519-1.605-0.444-2.479c0.062-0.723,0.28-1.469,0.663-2.211c-0.783,0.029-1.558,0.098-2.319,0.199
	c-0.051,0.077-0.104,0.153-0.152,0.231C584.403,347.045,584.01,348.179,583.896,349.275"/>
<path fill="#BBBDBE" d="M585.604,343.255c1.273-1.013,2.729-1.86,4.277-2.512c1.547-0.65,3.199-1.109,4.871-1.343
	c1.68-0.23,3.393-0.234,5.055,0.033c1.684,0.269,3.164,0.791,4.404,1.509c1.259,0.731,2.274,1.668,2.997,2.755
	c0.736,1.104,1.17,2.365,1.25,3.719c0.08,1.378-0.207,2.849-0.918,4.343c-0.233,0.489-0.508,0.962-0.813,1.423
	c0.59,0.611,1.148,1.253,1.676,1.92c0.293-0.473,0.558-0.957,0.789-1.456c0.827-1.786,1.147-3.54,1.033-5.18
	c-0.112-1.603-0.642-3.096-1.523-4.398c-0.862-1.277-2.064-2.376-3.547-3.229c-1.455-0.839-3.188-1.445-5.15-1.757
	c-1.937-0.308-3.929-0.303-5.881-0.031c-1.943,0.269-3.861,0.802-5.66,1.559c-1.803,0.758-3.501,1.746-4.99,2.923
	c-1.25,0.986-2.358,2.115-3.271,3.362c0.855-0.301,1.733-0.555,2.63-0.763C583.599,345.066,584.54,344.101,585.604,343.255"/>
<path fill="#707172" d="M577.812,352.461c-0.227,1.608-0.052,3.179,0.507,4.62c0.569,1.472,1.539,2.81,2.883,3.917
	c1.371,1.128,3.126,2.013,5.231,2.548c2.138,0.543,4.416,0.672,6.696,0.431c2.294-0.243,4.568-0.855,6.682-1.782
	c2.107-0.923,4.038-2.148,5.655-3.612c1.163-1.051,2.156-2.222,2.936-3.48c-0.526-0.667-1.086-1.309-1.676-1.92
	c-0.643,0.968-1.435,1.872-2.35,2.689c-1.364,1.216-2.986,2.235-4.757,3.007c-1.773,0.772-3.681,1.29-5.608,1.501
	c-1.918,0.213-3.838,0.121-5.646-0.314c-1.786-0.428-3.286-1.148-4.465-2.078c-1.16-0.91-2.009-2.018-2.52-3.245
	c-0.502-1.205-0.68-2.522-0.514-3.881c0.162-1.335,0.659-2.71,1.509-4.062c0.143-0.229,0.296-0.449,0.455-0.668
	c-0.896,0.208-1.774,0.462-2.63,0.763c-0.188,0.254-0.369,0.515-0.539,0.78C578.645,349.262,578.035,350.883,577.812,352.461"/>
<path fill="#BBBDBE" d="M451.913,351.629h-6.385v6.8c0,0.229-0.186,0.416-0.416,0.416h-1.06c-0.229,0-0.416-0.187-0.416-0.416
	v-11.312c0-2.766,1.518-3.868,4.429-3.868c1.228,0,3.182,0.042,4.056,0.125c0.124,0.021,0.208,0.167,0.208,0.291v1.04
	c0,0.146-0.084,0.25-0.229,0.25h-4.014c-2.204,0-2.559,0.582-2.559,2.162v2.89h6.385c0.229,0,0.416,0.188,0.416,0.417v0.79
	C452.329,351.44,452.143,351.629,451.913,351.629"/>
<path fill="#BBBDBE" d="M456.819,358.845h-1.143c-0.21,0-0.375-0.188-0.375-0.416v-14.64c0-0.207,0.146-0.395,0.375-0.395h1.143
	c0.208,0,0.375,0.166,0.375,0.395v14.64C457.194,358.638,457.048,358.845,456.819,358.845"/>
<path fill="#BBBDBE" d="M464.555,353.521h-4.139c-0.229,0-0.395-0.125-0.395-0.354v-0.811c0-0.208,0.166-0.374,0.395-0.374h4.139
	c0.229,0,0.395,0.145,0.395,0.374v0.811C464.949,353.375,464.784,353.521,464.555,353.521"/>
<path fill="#FFFFFF" d="M478.486,358.99c-1.081,0-2.08-0.104-3.265-0.521c-1.186,0.416-2.163,0.521-3.244,0.521
	c-3.161,0-4.408-2.06-4.408-5.677v-9.524c0-0.207,0.165-0.395,0.394-0.395h1.104c0.208,0,0.395,0.188,0.395,0.395v9.524
	c0,2.807,0.562,4.074,2.911,4.074c0.354,0,1.455-0.062,1.913-0.186v-13.413c0-0.207,0.167-0.395,0.396-0.395h1.124
	c0.228,0,0.373,0.146,0.373,0.375v13.433c0.458,0.124,1.561,0.186,1.912,0.186c2.351,0,2.912-1.268,2.912-4.074v-9.524
	c0-0.207,0.167-0.395,0.396-0.395h1.102c0.208,0,0.396,0.188,0.396,0.395v9.524C482.895,356.931,481.647,358.99,478.486,358.99"/>
<path fill="#FFFFFF" d="M494.392,347.554c0-2.163-0.686-2.643-2.578-2.643h-1.206c-1.893,0-2.579,0.479-2.579,2.643v3.056h6.363
	V347.554z M495.91,358.845h-1.144c-0.209,0-0.375-0.188-0.375-0.416v-6.156h-6.363v6.156c0,0.209-0.145,0.416-0.374,0.416h-1.144
	c-0.208,0-0.374-0.207-0.374-0.416v-10.875c0-3.184,1.476-4.306,4.471-4.306h1.206c2.974,0,4.47,1.122,4.47,4.306v10.875
	C496.283,358.638,496.117,358.845,495.91,358.845"/>
<path fill="#FFFFFF" d="M507.637,347.72c0-2.079-1.353-2.767-3.951-2.767c-0.645,0-1.788,0-2.287,0.062v5.698
	c0.915,0.021,1.809,0.041,2.287,0.041c2.558,0,3.951-0.645,3.951-2.89V347.72z M509.82,358.845h-1.332c-0.249,0-0.374,0-0.54-0.271
	l-3.722-6.196h-0.188h-0.354c-0.687,0-1.186-0.021-2.287-0.062v6.113c0,0.209-0.146,0.416-0.375,0.416h-1.122
	c-0.208,0-0.375-0.188-0.375-0.416v-14.557c0-0.29,0.125-0.416,0.499-0.457c0.894-0.104,2.454-0.167,3.66-0.167
	c3.285,0,5.822,1.103,5.822,4.472v0.146c0,2.329-1.373,3.701-3.265,4.2l3.785,6.321c0.042,0.062,0.062,0.125,0.062,0.187
	C510.09,358.72,509.987,358.845,509.82,358.845"/>
<path fill="#FFFFFF" d="M521.006,358.886c-0.79,0.083-2.828,0.104-4.055,0.104c-2.911,0-4.429-1.101-4.429-3.867v-8.007
	c0-2.765,1.518-3.867,4.429-3.867c1.227,0,3.181,0.042,4.055,0.125c0.125,0.021,0.208,0.167,0.208,0.291v1.039
	c0,0.146-0.083,0.25-0.229,0.25h-4.014c-2.203,0-2.558,0.582-2.558,2.162v2.891h6.384c0.229,0,0.416,0.188,0.416,0.417v0.79
	c0,0.229-0.187,0.416-0.416,0.416h-6.384v3.493c0,1.579,0.354,2.162,2.558,2.162h4.014c0.146,0,0.229,0.104,0.229,0.249v1.062
	C521.214,358.72,521.131,358.864,521.006,358.886"/>
<path fill="#FFFFFF" d="M429.83,348.063c0.646-0.552,1.175-1.189,1.534-1.89c0.358-0.694,0.52-1.382,0.502-2.032
	c-0.016-0.643-0.204-1.246-0.544-1.78c-0.337-0.531-0.82-0.991-1.432-1.353c-0.608-0.361-1.34-0.623-2.18-0.761
	c-0.834-0.138-1.696-0.138-2.547-0.022c-0.847,0.115-1.681,0.347-2.459,0.676c-0.78,0.328-1.507,0.758-2.134,1.265
	c-0.63,0.509-1.162,1.103-1.551,1.759c-0.264,0.446-0.439,0.893-0.542,1.333c3.942,0.218,7.64,1.343,10.896,3.165
	C429.532,348.307,429.685,348.188,429.83,348.063"/>
<path fill="#BBBDBE" d="M418.747,347.713c0.286,0.562,0.731,1.062,1.32,1.467c0.593,0.408,1.329,0.717,2.195,0.89
	c0.869,0.177,1.784,0.199,2.688,0.088c0.907-0.112,1.804-0.358,2.636-0.715c0.644-0.276,1.248-0.622,1.789-1.02
	c-3.258-1.822-6.954-2.947-10.896-3.165c-0.049,0.213-0.089,0.426-0.103,0.633C418.335,346.536,418.463,347.153,418.747,347.713"/>
<path fill="#FFFFFF" d="M416.303,344.799c0.532-0.881,1.252-1.672,2.098-2.354c0.842-0.675,1.811-1.246,2.849-1.682
	c1.037-0.437,2.146-0.745,3.271-0.9c1.129-0.153,2.277-0.153,3.391,0.027c1.118,0.181,2.101,0.532,2.914,1.012
	c0.825,0.485,1.482,1.104,1.941,1.816c0.466,0.722,0.729,1.538,0.761,2.409c0.032,0.885-0.174,1.823-0.651,2.772
	c-0.339,0.672-0.793,1.304-1.335,1.884c0.658,0.463,1.296,0.955,1.906,1.478c0.382-0.505,0.715-1.034,0.984-1.586
	c0.596-1.215,0.844-2.414,0.791-3.541c-0.052-1.108-0.399-2.146-0.997-3.055c-0.589-0.897-1.421-1.677-2.461-2.283
	c-1.026-0.601-2.257-1.035-3.658-1.262c-1.388-0.225-2.819-0.222-4.225-0.029c-1.401,0.192-2.783,0.577-4.075,1.121
	c-1.294,0.545-2.506,1.254-3.562,2.099c-0.989,0.789-1.844,1.703-2.506,2.715c0.763-0.1,1.536-0.169,2.319-0.2
	C416.134,345.094,416.215,344.946,416.303,344.799"/>
<path fill="#BBBDBE" d="M412.391,349.024c-0.116,1.113,0.056,2.188,0.493,3.167c0.443,0.993,1.164,1.887,2.135,2.617
	c0.986,0.739,2.23,1.312,3.703,1.646c1.489,0.337,3.062,0.399,4.63,0.219c1.575-0.18,3.132-0.604,4.579-1.23
	c1.445-0.626,2.771-1.451,3.889-2.436c0.613-0.538,1.158-1.124,1.627-1.745c-0.61-0.521-1.247-1.015-1.906-1.478
	c-0.229,0.243-0.474,0.481-0.732,0.707c-0.88,0.762-1.92,1.404-3.052,1.892c-1.135,0.49-2.354,0.822-3.588,0.969
	c-1.23,0.146-2.47,0.108-3.646-0.145c-1.166-0.248-2.155-0.682-2.946-1.249c-0.781-0.562-1.365-1.254-1.735-2.026
	c-0.365-0.763-0.52-1.604-0.444-2.479c0.062-0.723,0.28-1.469,0.662-2.212c-0.783,0.03-1.557,0.099-2.319,0.199
	c-0.051,0.078-0.103,0.153-0.151,0.232C412.896,346.794,412.505,347.928,412.391,349.024"/>
<path fill="#FFFFFF" d="M414.098,343.004c1.272-1.013,2.728-1.861,4.277-2.512c1.546-0.65,3.198-1.109,4.871-1.343
	c1.68-0.23,3.393-0.234,5.055,0.032c1.684,0.27,3.164,0.791,4.404,1.509c1.259,0.732,2.274,1.669,2.997,2.755
	c0.736,1.105,1.169,2.366,1.25,3.719c0.08,1.378-0.208,2.85-0.918,4.344c-0.234,0.488-0.508,0.962-0.813,1.422
	c0.59,0.612,1.148,1.254,1.676,1.921c0.293-0.473,0.558-0.957,0.788-1.456c0.827-1.786,1.148-3.541,1.034-5.18
	c-0.112-1.604-0.642-3.096-1.523-4.398c-0.863-1.277-2.064-2.376-3.547-3.229c-1.456-0.839-3.188-1.446-5.15-1.757
	c-1.937-0.308-3.929-0.303-5.881-0.031c-1.944,0.269-3.861,0.802-5.66,1.559c-1.803,0.758-3.501,1.745-4.99,2.923
	c-1.25,0.985-2.358,2.114-3.272,3.362c0.856-0.301,1.734-0.555,2.631-0.764C412.093,344.815,413.034,343.85,414.098,343.004"/>
<path fill="#BBBDBE" d="M406.307,352.21c-0.227,1.608-0.052,3.179,0.506,4.62c0.571,1.472,1.539,2.809,2.883,3.917
	c1.371,1.128,3.126,2.013,5.232,2.548c2.137,0.543,4.416,0.672,6.696,0.43c2.294-0.242,4.567-0.854,6.683-1.782
	c2.107-0.922,4.037-2.147,5.655-3.611c1.163-1.051,2.154-2.222,2.934-3.48c-0.526-0.667-1.085-1.309-1.675-1.921
	c-0.644,0.969-1.435,1.873-2.35,2.689c-1.364,1.217-2.986,2.236-4.758,3.007c-1.771,0.772-3.681,1.29-5.607,1.501
	c-1.918,0.214-3.838,0.122-5.647-0.313c-1.786-0.428-3.286-1.148-4.465-2.078c-1.16-0.91-2.007-2.018-2.519-3.246
	c-0.502-1.204-0.681-2.521-0.515-3.881c0.162-1.334,0.659-2.709,1.509-4.061c0.145-0.229,0.298-0.45,0.456-0.669
	c-0.896,0.209-1.774,0.463-2.631,0.764c-0.187,0.254-0.369,0.515-0.539,0.78C407.139,349.01,406.528,350.631,406.307,352.21"/>
<path fill="#00D3DE" d="M111.33,351.629h-6.384v6.8c0,0.229-0.187,0.416-0.416,0.416h-1.061c-0.228,0-0.415-0.187-0.415-0.416
	v-11.313c0-2.765,1.517-3.867,4.429-3.867c1.227,0,3.181,0.042,4.055,0.124c0.125,0.022,0.208,0.168,0.208,0.292v1.04
	c0,0.146-0.083,0.25-0.229,0.25h-4.014c-2.203,0-2.557,0.582-2.557,2.161v2.892h6.384c0.229,0,0.416,0.187,0.416,0.416v0.79
	C111.746,351.44,111.559,351.629,111.33,351.629"/>
<path fill="#00D3DE" d="M116.235,358.845h-1.143c-0.209,0-0.375-0.188-0.375-0.416v-14.64c0-0.208,0.146-0.395,0.375-0.395h1.143
	c0.208,0,0.375,0.166,0.375,0.395v14.64C116.61,358.638,116.464,358.845,116.235,358.845"/>
<path fill="#00D3DE" d="M123.971,353.521h-4.138c-0.229,0-0.395-0.125-0.395-0.354v-0.811c0-0.208,0.166-0.374,0.395-0.374h4.138
	c0.229,0,0.395,0.145,0.395,0.374v0.811C124.366,353.375,124.2,353.521,123.971,353.521"/>
<path fill="#FFFFFF" d="M137.903,358.989c-1.082,0-2.08-0.104-3.265-0.521c-1.185,0.416-2.163,0.521-3.244,0.521
	c-3.161,0-4.409-2.06-4.409-5.676v-9.524c0-0.208,0.167-0.395,0.395-0.395h1.103c0.208,0,0.394,0.187,0.394,0.395v9.524
	c0,2.807,0.562,4.074,2.912,4.074c0.353,0,1.455-0.062,1.913-0.186v-13.413c0-0.208,0.167-0.395,0.395-0.395h1.123
	c0.229,0,0.374,0.146,0.374,0.375v13.433c0.458,0.124,1.56,0.186,1.913,0.186c2.35,0,2.912-1.268,2.912-4.074v-9.524
	c0-0.208,0.167-0.395,0.395-0.395h1.102c0.208,0,0.395,0.187,0.395,0.395v9.524C142.311,356.93,141.064,358.989,137.903,358.989"/>
<path fill="#FFFFFF" d="M153.808,347.554c0-2.163-0.686-2.643-2.578-2.643h-1.206c-1.893,0-2.579,0.479-2.579,2.643v3.057h6.363
	V347.554z M155.326,358.845h-1.143c-0.208,0-0.375-0.188-0.375-0.416v-6.156h-6.363v6.156c0,0.209-0.145,0.416-0.374,0.416h-1.144
	c-0.208,0-0.374-0.207-0.374-0.416v-10.875c0-3.184,1.476-4.306,4.471-4.306h1.206c2.973,0,4.471,1.122,4.471,4.306v10.875
	C155.701,358.638,155.534,358.845,155.326,358.845"/>
<path fill="#FFFFFF" d="M167.052,347.72c0-2.08-1.351-2.767-3.95-2.767c-0.645,0-1.789,0-2.288,0.062v5.698
	c0.915,0.021,1.809,0.041,2.288,0.041c2.557,0,3.95-0.645,3.95-2.891V347.72z M169.236,358.845h-1.331c-0.25,0-0.374,0-0.541-0.271
	l-3.721-6.196h-0.188h-0.353c-0.688,0-1.186-0.021-2.288-0.062v6.113c0,0.209-0.145,0.416-0.374,0.416h-1.123
	c-0.208,0-0.374-0.188-0.374-0.416v-14.557c0-0.291,0.124-0.416,0.498-0.457c0.895-0.104,2.455-0.167,3.661-0.167
	c3.285,0,5.822,1.103,5.822,4.472v0.145c0,2.33-1.372,3.702-3.265,4.202l3.785,6.321c0.042,0.061,0.062,0.124,0.062,0.186
	C169.506,358.72,169.403,358.845,169.236,358.845"/>
<path fill="#FFFFFF" d="M180.422,358.886c-0.79,0.083-2.828,0.104-4.055,0.104c-2.911,0-4.429-1.101-4.429-3.867v-8.008
	c0-2.764,1.518-3.866,4.429-3.866c1.227,0,3.181,0.042,4.055,0.124c0.125,0.022,0.208,0.168,0.208,0.292v1.039
	c0,0.146-0.083,0.25-0.229,0.25h-4.013c-2.204,0-2.558,0.582-2.558,2.161v2.893h6.384c0.229,0,0.416,0.188,0.416,0.416v0.79
	c0,0.229-0.187,0.416-0.416,0.416h-6.384v3.493c0,1.579,0.354,2.162,2.558,2.162h4.013c0.146,0,0.229,0.104,0.229,0.249v1.062
	C180.63,358.72,180.547,358.864,180.422,358.886"/>
<path fill="#FFFFFF" d="M89.247,348.063c0.645-0.552,1.174-1.189,1.534-1.89c0.358-0.693,0.518-1.382,0.502-2.032
	c-0.016-0.643-0.205-1.246-0.545-1.78c-0.336-0.531-0.821-0.991-1.432-1.353c-0.607-0.361-1.34-0.623-2.179-0.761
	c-0.834-0.139-1.697-0.139-2.547-0.023c-0.846,0.116-1.68,0.348-2.459,0.677c-0.78,0.328-1.506,0.757-2.133,1.266
	c-0.63,0.508-1.163,1.102-1.551,1.758c-0.265,0.446-0.44,0.893-0.542,1.333c3.942,0.218,7.64,1.343,10.896,3.164
	C88.948,348.307,89.101,348.188,89.247,348.063"/>
<path fill="#00D3DE" d="M78.163,347.713c0.287,0.562,0.732,1.062,1.321,1.466c0.593,0.409,1.33,0.718,2.195,0.891
	c0.87,0.177,1.784,0.198,2.688,0.088c0.908-0.112,1.803-0.358,2.635-0.715c0.645-0.276,1.248-0.622,1.789-1.021
	c-3.256-1.821-6.954-2.946-10.896-3.164c-0.049,0.213-0.088,0.425-0.102,0.633C77.75,346.536,77.879,347.153,78.163,347.713"/>
<path fill="#FFFFFF" d="M75.719,344.799c0.533-0.88,1.252-1.673,2.098-2.354c0.841-0.675,1.81-1.246,2.848-1.682
	c1.037-0.438,2.146-0.745,3.271-0.899c1.13-0.154,2.278-0.154,3.39,0.026c1.119,0.182,2.101,0.532,2.915,1.012
	c0.825,0.485,1.482,1.104,1.941,1.816c0.466,0.722,0.729,1.538,0.761,2.409c0.032,0.885-0.174,1.823-0.652,2.771
	c-0.339,0.673-0.793,1.305-1.335,1.885c0.659,0.463,1.296,0.955,1.907,1.478c0.381-0.505,0.714-1.033,0.984-1.586
	c0.596-1.216,0.844-2.415,0.791-3.54c-0.052-1.109-0.398-2.146-0.996-3.056c-0.59-0.897-1.422-1.676-2.462-2.283
	c-1.026-0.601-2.257-1.035-3.657-1.262c-1.389-0.224-2.821-0.222-4.226-0.029c-1.401,0.192-2.783,0.577-4.075,1.121
	c-1.294,0.545-2.506,1.254-3.562,2.099c-0.989,0.789-1.842,1.702-2.505,2.715c0.763-0.1,1.536-0.169,2.319-0.2
	C75.551,345.094,75.631,344.945,75.719,344.799"/>
<path fill="#00D3DE" d="M71.807,349.024c-0.116,1.112,0.056,2.188,0.493,3.166c0.445,0.994,1.164,1.888,2.136,2.618
	c0.985,0.74,2.229,1.312,3.703,1.646c1.488,0.338,3.063,0.399,4.629,0.219c1.575-0.18,3.132-0.604,4.579-1.23
	c1.445-0.626,2.772-1.452,3.889-2.436c0.613-0.538,1.158-1.124,1.627-1.745c-0.611-0.521-1.247-1.015-1.907-1.478
	c-0.229,0.243-0.472,0.482-0.732,0.708c-0.88,0.761-1.92,1.403-3.052,1.891c-1.134,0.49-2.354,0.822-3.588,0.969
	c-1.23,0.147-2.469,0.109-3.646-0.145c-1.166-0.248-2.155-0.682-2.946-1.25c-0.782-0.562-1.366-1.253-1.736-2.025
	c-0.365-0.763-0.519-1.604-0.444-2.479c0.061-0.722,0.28-1.468,0.662-2.211c-0.783,0.03-1.556,0.099-2.319,0.199
	c-0.051,0.078-0.103,0.153-0.151,0.232C72.312,346.793,71.92,347.928,71.807,349.024"/>
<path fill="#FFFFFF" d="M73.514,343.003c1.273-1.012,2.728-1.86,4.277-2.511c1.546-0.651,3.199-1.109,4.871-1.343
	c1.68-0.231,3.393-0.234,5.055,0.032c1.683,0.27,3.164,0.791,4.404,1.509c1.259,0.732,2.274,1.668,2.997,2.754
	c0.736,1.106,1.17,2.368,1.25,3.72c0.08,1.378-0.208,2.85-0.918,4.343c-0.233,0.489-0.508,0.963-0.813,1.423
	c0.589,0.612,1.148,1.254,1.675,1.92c0.293-0.472,0.558-0.957,0.789-1.455c0.828-1.786,1.148-3.541,1.034-5.181
	c-0.113-1.604-0.642-3.095-1.524-4.398c-0.862-1.277-2.064-2.376-3.547-3.229c-1.455-0.839-3.188-1.446-5.15-1.757
	c-1.937-0.308-3.929-0.303-5.881-0.031c-1.943,0.269-3.861,0.802-5.66,1.558c-1.803,0.759-3.501,1.746-4.99,2.922
	c-1.25,0.987-2.359,2.116-3.273,3.364c0.857-0.301,1.735-0.556,2.631-0.763C71.509,344.815,72.45,343.85,73.514,343.003"/>
<path fill="#00D3DE" d="M65.723,352.21c-0.227,1.608-0.052,3.179,0.506,4.62c0.57,1.471,1.539,2.809,2.883,3.917
	c1.37,1.128,3.126,2.013,5.232,2.548c2.137,0.543,4.416,0.672,6.696,0.43c2.294-0.242,4.568-0.854,6.682-1.782
	c2.107-0.922,4.038-2.148,5.655-3.611c1.163-1.051,2.155-2.223,2.935-3.481c-0.526-0.666-1.086-1.308-1.675-1.92
	c-0.643,0.969-1.435,1.873-2.35,2.689c-1.365,1.217-2.986,2.236-4.757,3.007c-1.773,0.772-3.681,1.29-5.608,1.501
	c-1.918,0.214-3.838,0.122-5.647-0.313c-1.787-0.429-3.286-1.148-4.465-2.078c-1.16-0.91-2.008-2.018-2.519-3.246
	c-0.503-1.205-0.68-2.521-0.514-3.88c0.162-1.335,0.659-2.71,1.509-4.062c0.143-0.229,0.296-0.449,0.455-0.667
	c-0.896,0.207-1.774,0.462-2.631,0.763c-0.187,0.254-0.368,0.515-0.538,0.779C66.555,349.01,65.945,350.631,65.723,352.21"/>
<path fill="#002759" d="M283.947,351.629h-6.384v6.8c0,0.229-0.187,0.416-0.416,0.416h-1.061c-0.228,0-0.415-0.187-0.415-0.416
	v-11.313c0-2.765,1.517-3.867,4.429-3.867c1.226,0,3.181,0.042,4.055,0.124c0.125,0.022,0.208,0.168,0.208,0.292v1.04
	c0,0.146-0.083,0.25-0.229,0.25h-4.013c-2.204,0-2.558,0.582-2.558,2.161v2.892h6.384c0.229,0,0.416,0.187,0.416,0.416v0.79
	C284.363,351.44,284.176,351.629,283.947,351.629"/>
<path fill="#002759" d="M288.853,358.845h-1.143c-0.209,0-0.375-0.188-0.375-0.416v-14.64c0-0.208,0.146-0.395,0.375-0.395h1.143
	c0.208,0,0.375,0.166,0.375,0.395v14.64C289.228,358.638,289.082,358.845,288.853,358.845"/>
<path fill="#002759" d="M296.588,353.521h-4.138c-0.229,0-0.395-0.125-0.395-0.354v-0.811c0-0.208,0.166-0.374,0.395-0.374h4.138
	c0.229,0,0.395,0.145,0.395,0.374v0.811C296.983,353.375,296.817,353.521,296.588,353.521"/>
<path fill="#FFFFFF" d="M310.52,358.989c-1.082,0-2.08-0.104-3.265-0.521c-1.185,0.416-2.163,0.521-3.244,0.521
	c-3.161,0-4.409-2.06-4.409-5.676v-9.524c0-0.208,0.167-0.395,0.395-0.395h1.103c0.208,0,0.395,0.187,0.395,0.395v9.524
	c0,2.807,0.561,4.074,2.911,4.074c0.353,0,1.455-0.062,1.913-0.186v-13.413c0-0.208,0.166-0.395,0.395-0.395h1.123
	c0.229,0,0.374,0.146,0.374,0.375v13.433c0.458,0.124,1.56,0.186,1.913,0.186c2.35,0,2.912-1.268,2.912-4.074v-9.524
	c0-0.208,0.166-0.395,0.395-0.395h1.102c0.208,0,0.395,0.187,0.395,0.395v9.524C314.928,356.93,313.681,358.989,310.52,358.989"/>
<path fill="#FFFFFF" d="M326.426,347.554c0-2.163-0.687-2.643-2.579-2.643h-1.206c-1.893,0-2.579,0.479-2.579,2.643v3.057h6.364
	V347.554z M327.943,358.845H326.8c-0.208,0-0.374-0.188-0.374-0.416v-6.156h-6.364v6.156c0,0.209-0.146,0.416-0.374,0.416h-1.144
	c-0.208,0-0.374-0.207-0.374-0.416v-10.875c0-3.184,1.476-4.306,4.471-4.306h1.206c2.974,0,4.47,1.122,4.47,4.306v10.875
	C328.317,358.638,328.151,358.845,327.943,358.845"/>
<path fill="#FFFFFF" d="M339.67,347.72c0-2.08-1.352-2.767-3.951-2.767c-0.644,0-1.788,0-2.287,0.062v5.698
	c0.914,0.021,1.809,0.041,2.287,0.041c2.558,0,3.951-0.645,3.951-2.891V347.72z M341.853,358.845h-1.331
	c-0.249,0-0.374,0-0.54-0.271l-3.722-6.196h-0.187h-0.354c-0.686,0-1.185-0.021-2.287-0.062v6.113c0,0.209-0.146,0.416-0.375,0.416
	h-1.123c-0.208,0-0.374-0.188-0.374-0.416v-14.557c0-0.291,0.124-0.416,0.499-0.457c0.894-0.104,2.454-0.167,3.66-0.167
	c3.285,0,5.822,1.103,5.822,4.472v0.145c0,2.33-1.372,3.702-3.264,4.202l3.784,6.321c0.042,0.061,0.063,0.124,0.063,0.186
	C342.124,358.72,342.02,358.845,341.853,358.845"/>
<path fill="#FFFFFF" d="M353.04,358.886c-0.791,0.083-2.829,0.104-4.055,0.104c-2.911,0-4.429-1.101-4.429-3.867v-8.008
	c0-2.764,1.518-3.866,4.429-3.866c1.226,0,3.181,0.042,4.055,0.124c0.125,0.022,0.208,0.168,0.208,0.292v1.039
	c0,0.146-0.083,0.25-0.229,0.25h-4.014c-2.204,0-2.557,0.582-2.557,2.161v2.893h6.384c0.229,0,0.416,0.188,0.416,0.416v0.79
	c0,0.229-0.187,0.416-0.416,0.416h-6.384v3.493c0,1.579,0.353,2.162,2.557,2.162h4.014c0.146,0,0.229,0.104,0.229,0.249v1.062
	C353.248,358.72,353.165,358.864,353.04,358.886"/>
<path fill="#FFFFFF" d="M261.864,348.063c0.646-0.552,1.174-1.189,1.535-1.89c0.358-0.693,0.518-1.382,0.501-2.032
	c-0.016-0.643-0.204-1.246-0.544-1.78c-0.337-0.531-0.821-0.991-1.432-1.353c-0.607-0.361-1.341-0.623-2.179-0.761
	c-0.835-0.139-1.697-0.139-2.547-0.023c-0.847,0.116-1.681,0.348-2.459,0.677c-0.78,0.328-1.507,0.757-2.134,1.266
	c-0.63,0.508-1.162,1.102-1.551,1.758c-0.264,0.446-0.439,0.893-0.542,1.333c3.942,0.218,7.641,1.343,10.896,3.164
	C261.566,348.307,261.718,348.188,261.864,348.063"/>
<path fill="#002759" d="M250.78,347.713c0.286,0.562,0.732,1.062,1.32,1.466c0.594,0.409,1.33,0.718,2.196,0.891
	c0.869,0.177,1.784,0.198,2.688,0.088c0.907-0.112,1.803-0.358,2.635-0.715c0.644-0.276,1.248-0.622,1.789-1.021
	c-3.256-1.821-6.954-2.946-10.896-3.164c-0.05,0.213-0.088,0.425-0.103,0.633C250.367,346.536,250.496,347.153,250.78,347.713"/>
<path fill="#FFFFFF" d="M248.336,344.799c0.532-0.88,1.252-1.673,2.097-2.354c0.841-0.675,1.811-1.246,2.849-1.682
	c1.036-0.438,2.146-0.745,3.27-0.899c1.13-0.154,2.278-0.154,3.391,0.026c1.119,0.182,2.101,0.532,2.914,1.012
	c0.826,0.485,1.482,1.104,1.942,1.816c0.466,0.722,0.729,1.538,0.761,2.409c0.032,0.885-0.175,1.823-0.652,2.771
	c-0.339,0.673-0.793,1.305-1.335,1.885c0.659,0.463,1.296,0.955,1.907,1.478c0.38-0.505,0.713-1.033,0.984-1.586
	c0.596-1.216,0.844-2.415,0.791-3.54c-0.053-1.109-0.399-2.146-0.997-3.056c-0.589-0.897-1.422-1.676-2.462-2.283
	c-1.025-0.601-2.256-1.035-3.657-1.262c-1.388-0.224-2.82-0.222-4.225-0.029c-1.401,0.192-2.783,0.577-4.075,1.121
	c-1.295,0.545-2.506,1.254-3.563,2.099c-0.988,0.789-1.842,1.702-2.504,2.715c0.762-0.1,1.536-0.169,2.319-0.2
	C248.168,345.094,248.248,344.945,248.336,344.799"/>
<path fill="#002759" d="M244.424,349.024c-0.116,1.112,0.056,2.188,0.493,3.166c0.445,0.994,1.164,1.888,2.136,2.618
	c0.986,0.74,2.229,1.312,3.703,1.646c1.488,0.338,3.063,0.399,4.63,0.219c1.574-0.18,3.131-0.604,4.579-1.23
	c1.444-0.626,2.771-1.452,3.888-2.436c0.613-0.538,1.158-1.124,1.627-1.745c-0.611-0.521-1.247-1.015-1.907-1.478
	c-0.229,0.243-0.472,0.482-0.732,0.708c-0.88,0.761-1.92,1.403-3.052,1.891c-1.134,0.49-2.354,0.822-3.588,0.969
	c-1.23,0.147-2.469,0.109-3.646-0.145c-1.166-0.248-2.155-0.682-2.946-1.25c-0.782-0.562-1.366-1.253-1.736-2.025
	c-0.365-0.763-0.519-1.604-0.444-2.479c0.061-0.722,0.281-1.468,0.663-2.211c-0.783,0.03-1.557,0.099-2.32,0.199
	c-0.051,0.078-0.103,0.153-0.151,0.232C244.93,346.793,244.538,347.928,244.424,349.024"/>
<path fill="#FFFFFF" d="M246.132,343.003c1.272-1.012,2.727-1.86,4.277-2.511c1.546-0.651,3.198-1.109,4.871-1.343
	c1.68-0.231,3.393-0.234,5.055,0.032c1.682,0.27,3.164,0.791,4.403,1.509c1.26,0.732,2.274,1.668,2.998,2.754
	c0.736,1.106,1.169,2.368,1.25,3.72c0.08,1.378-0.208,2.85-0.919,4.343c-0.233,0.489-0.507,0.963-0.812,1.423
	c0.589,0.612,1.148,1.254,1.674,1.92c0.294-0.472,0.559-0.957,0.789-1.455c0.828-1.786,1.149-3.541,1.035-5.181
	c-0.113-1.604-0.642-3.095-1.524-4.398c-0.863-1.277-2.065-2.376-3.547-3.229c-1.456-0.839-3.188-1.446-5.151-1.757
	c-1.936-0.308-3.929-0.303-5.881-0.031c-1.943,0.269-3.86,0.802-5.66,1.558c-1.803,0.759-3.5,1.746-4.99,2.922
	c-1.249,0.987-2.358,2.116-3.272,3.364c0.856-0.301,1.735-0.556,2.631-0.763C244.127,344.815,245.068,343.85,246.132,343.003"/>
<path fill="#002759" d="M238.341,352.21c-0.228,1.608-0.052,3.179,0.506,4.62c0.57,1.471,1.538,2.809,2.882,3.917
	c1.371,1.128,3.126,2.013,5.233,2.548c2.137,0.543,4.415,0.672,6.695,0.43c2.294-0.242,4.568-0.854,6.683-1.782
	c2.107-0.922,4.038-2.148,5.655-3.611c1.163-1.051,2.155-2.223,2.934-3.481c-0.526-0.666-1.085-1.308-1.674-1.92
	c-0.644,0.969-1.435,1.873-2.351,2.689c-1.364,1.217-2.986,2.236-4.756,3.007c-1.773,0.772-3.682,1.29-5.608,1.501
	c-1.918,0.214-3.839,0.122-5.648-0.313c-1.786-0.429-3.286-1.148-4.465-2.078c-1.16-0.91-2.007-2.018-2.518-3.246
	c-0.503-1.205-0.68-2.521-0.515-3.88c0.163-1.335,0.659-2.71,1.51-4.062c0.143-0.229,0.296-0.449,0.455-0.667
	c-0.896,0.207-1.775,0.462-2.631,0.763c-0.187,0.254-0.369,0.515-0.538,0.779C239.172,349.01,238.563,350.631,238.341,352.21"/>
</svg>
